<svg width="24" height="24" viewBox="0 0 24 24" fill="none" xmlns="http://www.w3.org/2000/svg">
<path d="M21.1571 0H2.64463C1.18347 0 0 1.19333 0 2.66667V21.3333C0 22.8067 1.18347 24 2.64463 24H21.1571C22.6182 24 23.8017 22.8067 23.8017 21.3333V2.66667C23.8017 1.19333 22.6182 0 21.1571 0ZM18.5785 8.68533C18.5785 8.8 18.5785 8.91333 18.5785 9.14267C18.5785 13.4853 15.2913 18.5147 9.28399 18.5147C7.47109 18.5147 5.77059 17.9427 4.29753 17.0293C4.52365 17.0293 4.8648 17.0293 5.09092 17.0293C6.56398 17.0293 8.03836 16.4573 9.17159 15.6573C7.69853 15.6573 6.5653 14.6293 6.11175 13.372C6.33786 13.372 6.5653 13.4867 6.67902 13.4867C7.01886 13.4867 7.2463 13.4867 7.58613 13.372C6.11307 13.0293 4.97984 11.772 4.97984 10.172C5.4334 10.4 5.88695 10.5147 6.45291 10.6293C5.5458 9.82933 4.97984 8.91467 4.97984 7.772C4.97984 7.2 5.09356 6.62933 5.4334 6.172C7.02018 8.11467 9.40035 9.48667 12.1204 9.6C12.1204 9.372 12.0066 9.14267 12.0066 8.8C12.0066 6.972 13.4797 5.48533 15.2939 5.48533C16.201 5.48533 17.1068 5.828 17.6741 6.51333C18.4675 6.39867 19.1471 6.056 19.7144 5.71333C19.4883 6.51333 18.921 7.08533 18.2414 7.54133C18.921 7.42667 19.4883 7.31333 20.168 6.96933C19.7118 7.65733 19.1458 8.228 18.5785 8.68533Z" fill="white"/>
</svg>
