<svg width="32" height="32" viewBox="0 0 32 32" fill="none" xmlns="http://www.w3.org/2000/svg">
<path d="M5.66675 2.66675C4.01275 2.66675 2.66675 4.01275 2.66675 5.66675V23.0001C2.66675 24.6541 4.01275 26.0001 5.66675 26.0001H23.0001C24.6541 26.0001 26.0001 24.6541 26.0001 23.0001V5.66675C26.0001 4.01275 24.6541 2.66675 23.0001 2.66675H5.66675ZM27.3334 6.18368V23.6667C27.3334 25.6881 25.6887 27.3334 23.6667 27.3334H6.18368C6.59768 28.4947 7.69808 29.3334 9.00008 29.3334H23.6667C26.7914 29.3334 29.3334 26.7914 29.3334 23.6667V9.00008C29.3334 7.69808 28.4947 6.59834 27.3334 6.18368ZM18.9988 10.0001C19.2546 10.0001 19.5105 10.0977 19.7058 10.2931C20.0965 10.6837 20.0971 11.3164 19.7071 11.7071L13.7071 17.7071C13.5118 17.9024 13.2561 18.0001 13.0001 18.0001C12.7441 18.0001 12.4884 17.9024 12.2931 17.7071L9.62638 15.0404C9.23572 14.6498 9.23572 14.0171 9.62638 13.6264C10.0171 13.2357 10.6498 13.2357 11.0404 13.6264L12.9988 15.586L18.2917 10.2931C18.4871 10.0977 18.7429 10.0001 18.9988 10.0001Z" fill="white"/>
</svg>
