<svg width="24" height="24" viewBox="0 0 24 24" fill="none" xmlns="http://www.w3.org/2000/svg">
<path d="M19.3389 0H4.46282C1.99897 0 0 2.01563 0 4.5V19.5C0 21.9844 1.99897 24 4.46282 24H19.3389C21.8027 24 23.8017 21.9844 23.8017 19.5V4.5C23.8017 2.01563 21.8027 0 19.3389 0ZM18.7345 12.9267H16.5067V21.238H12.7877V12.9267H11.343V10.125H12.7877V8.34014C12.7877 6.00361 13.7496 4.61538 16.4853 4.61538H19.2531V7.40625H17.6439C16.5818 7.40625 16.5103 7.80288 16.5103 8.55289L16.5067 10.125H19.0385L18.7345 12.9267Z" fill="white"/>
</svg>
