<svg width="24" height="24" viewBox="0 0 24 24" fill="none" xmlns="http://www.w3.org/2000/svg">
<path d="M21.1571 0H2.64463C1.18347 0 0 1.19333 0 2.66667V21.3333C0 22.8067 1.18347 24 2.64463 24H21.1571C22.6182 24 23.8017 22.8067 23.8017 21.3333V2.66667C23.8017 1.19333 22.6182 0 21.1571 0ZM7.9339 18.6667H4.5977V9.33333H7.9339V18.6667ZM6.20695 7.62267C5.18745 7.62267 4.50646 6.93733 4.50646 6.02267C4.50646 5.108 5.18613 4.42267 6.31935 4.42267C7.33886 4.42267 8.01985 5.108 8.01985 6.02267C8.01985 6.93733 7.34018 7.62267 6.20695 7.62267ZM19.8347 18.6667H16.6057V13.5653C16.6057 12.1547 15.7448 11.8293 15.4222 11.8293C15.0995 11.8293 14.0232 12.0467 14.0232 13.5653C14.0232 13.7827 14.0232 18.6667 14.0232 18.6667H10.687V9.33333H14.0232V10.636C14.4529 9.876 15.3138 9.33333 16.9283 9.33333C18.5428 9.33333 19.8347 10.636 19.8347 13.5653V18.6667Z" fill="white"/>
</svg>
