<svg width="48" height="48" viewBox="0 0 48 48" fill="none" xmlns="http://www.w3.org/2000/svg">
<path d="M38 6H10C7.79 6 6 7.79 6 10V38C6 40.21 7.79 42 10 42H38C40.21 42 42 40.21 42 38V10C42 7.79 40.21 6 38 6ZM34.1 19.028C34.1 19.2 34.1 19.37 34.1 19.714C34.1 26.228 29.128 33.772 20.042 33.772C17.3 33.772 14.728 32.914 12.5 31.544C12.842 31.544 13.358 31.544 13.7 31.544C15.928 31.544 18.158 30.686 19.872 29.486C17.644 29.486 15.93 27.944 15.244 26.058C15.586 26.058 15.93 26.23 16.102 26.23C16.616 26.23 16.96 26.23 17.474 26.058C15.246 25.544 13.532 23.658 13.532 21.258C14.218 21.6 14.904 21.772 15.76 21.944C14.388 20.744 13.532 19.372 13.532 17.658C13.532 16.8 13.704 15.944 14.218 15.258C16.618 18.172 20.218 20.23 24.332 20.4C24.332 20.058 24.16 19.714 24.16 19.2C24.16 16.458 26.388 14.228 29.132 14.228C30.504 14.228 31.874 14.742 32.732 15.77C33.932 15.598 34.96 15.084 35.818 14.57C35.476 15.77 34.618 16.628 33.59 17.312C34.618 17.14 35.476 16.97 36.504 16.454C35.814 17.486 34.958 18.342 34.1 19.028Z" fill="white"/>
</svg>
