<svg width="48" height="48" viewBox="0 0 48 48" fill="none" xmlns="http://www.w3.org/2000/svg">
<path d="M8.5 4C6.019 4 4 6.019 4 8.5V34.5C4 36.981 6.019 39 8.5 39H34.5C36.981 39 39 36.981 39 34.5V8.5C39 6.019 36.981 4 34.5 4H8.5ZM41 9.27539V35.5C41 38.532 38.533 41 35.5 41H9.27539C9.89639 42.742 11.547 44 13.5 44H35.5C40.187 44 44 40.187 44 35.5V13.5C44 11.547 42.742 9.89739 41 9.27539ZM28.498 15C28.8818 15 29.2656 15.1465 29.5586 15.4395C30.1446 16.0255 30.1455 16.9745 29.5605 17.5605L20.5605 26.5605C20.2675 26.8535 19.884 27 19.5 27C19.116 27 18.7325 26.8535 18.4395 26.5605L14.4395 22.5605C13.8535 21.9745 13.8535 21.0255 14.4395 20.4395C15.0255 19.8535 15.9745 19.8535 16.5605 20.4395L19.498 23.3789L27.4375 15.4395C27.7305 15.1465 28.1143 15 28.498 15Z" fill="white"/>
</svg>
