<svg width="26" height="26" viewBox="0 0 26 26" fill="none" xmlns="http://www.w3.org/2000/svg">
<path d="M13 0.199951C5.93115 0.199951 0.199951 5.93115 0.199951 13C0.199951 18.9978 4.33008 24.0165 9.89808 25.4053C9.83835 25.2325 9.79995 25.032 9.79995 24.7834V22.5957C9.28048 22.5957 8.41008 22.5957 8.19142 22.5957C7.31568 22.5957 6.53702 22.2192 6.15942 21.5194C5.74022 20.7418 5.66768 19.5525 4.62875 18.825C4.32048 18.5829 4.55515 18.3066 4.91035 18.344C5.56635 18.5296 6.11035 18.9797 6.62235 19.6474C7.13222 20.3162 7.37222 20.4677 8.32475 20.4677C8.78662 20.4677 9.47782 20.441 10.1285 20.3386C10.4784 19.4501 11.0832 18.6319 11.8224 18.2458C7.55995 17.8074 5.52582 15.6869 5.52582 12.808C5.52582 11.5685 6.05382 10.3696 6.95088 9.35942C6.65648 8.35675 6.28635 6.31195 7.06395 5.53328C8.98182 5.53328 10.1413 6.77702 10.4197 7.11302C11.3754 6.78555 12.425 6.59995 13.528 6.59995C14.633 6.59995 15.6869 6.78555 16.6448 7.11515C16.92 6.78128 18.0805 5.53328 20.0026 5.53328C20.7834 6.31302 20.409 8.36635 20.1114 9.36688C21.0031 10.3749 21.528 11.5706 21.528 12.808C21.528 15.6847 19.497 17.8042 15.241 18.2447C16.4122 18.8559 17.2666 20.5733 17.2666 21.8671V24.7834C17.2666 24.8944 17.2421 24.9744 17.2293 25.0693C22.217 23.321 25.7999 18.585 25.7999 13C25.7999 5.93115 20.0687 0.199951 13 0.199951Z" fill="white"/>
</svg>
