<svg width="41" height="41" viewBox="0 0 41 41" fill="none" xmlns="http://www.w3.org/2000/svg">
<path d="M33.3125 0H7.6875C3.44336 0 0 3.44336 0 7.6875V33.3125C0 37.5566 3.44336 41 7.6875 41H33.3125C37.5566 41 41 37.5566 41 33.3125V7.6875C41 3.44336 37.5566 0 33.3125 0ZM32.2715 22.0831H28.4339V36.2816H22.0276V22.0831H19.5391V17.2969H22.0276V14.2477C22.0276 10.2562 23.6846 7.88462 28.3969 7.88462H33.1647V12.6523H30.3927C28.5633 12.6523 28.4401 13.3299 28.4401 14.6112L28.4339 17.2969H32.7951L32.2715 22.0831Z" fill="white"/>
</svg>
