<svg width="168" height="149" viewBox="0 0 168 149" fill="none" xmlns="http://www.w3.org/2000/svg">
<g clip-path="url(#clip0)">
<path d="M145.981 89.2604H4.60228C3.46191 89.2591 2.36862 88.8035 1.56226 87.9936C0.755894 87.1836 0.302313 86.0855 0.301025 84.9401V4.87061H150.282V84.9401C150.281 86.0855 149.827 87.1836 149.021 87.9936C148.214 88.8035 147.121 89.2591 145.981 89.2604Z" fill="#E6E6E6"/>
<path d="M140.354 80.9906H10.2284C9.64091 80.99 9.0777 80.7553 8.6623 80.338C8.2469 79.9208 8.01323 79.3551 8.01257 78.765V15.3656C8.01323 14.7756 8.2469 14.2099 8.6623 13.7926C9.0777 13.3754 9.64091 13.1407 10.2284 13.14H140.354C140.942 13.1407 141.505 13.3754 141.92 13.7926C142.336 14.2098 142.569 14.7756 142.57 15.3656V78.765C142.569 79.3551 142.336 79.9208 141.92 80.338C141.505 80.7553 140.942 80.99 140.354 80.9906Z" fill="white"/>
<path d="M150.583 7.78899H0V4.3203C0.00128816 3.17488 0.454869 2.07675 1.26123 1.26681C2.06759 0.456882 3.16089 0.00129386 4.30126 0H146.282C147.422 0.00129386 148.515 0.456882 149.322 1.26681C150.128 2.07675 150.582 3.17488 150.583 4.3203V7.78899Z" fill="#45A29E"/>
<path d="M41.0083 56.716H17.8479C17.2604 56.7154 16.6972 56.4807 16.2818 56.0634C15.8664 55.6462 15.6327 55.0805 15.6321 54.4904V39.1974C15.6327 38.6073 15.8664 38.0416 16.2818 37.6244C16.6972 37.2072 17.2604 36.9725 17.8479 36.9718H41.0083C41.5958 36.9725 42.159 37.2072 42.5744 37.6244C42.9898 38.0416 43.2234 38.6073 43.2241 39.1974V54.4904C43.2234 55.0805 42.9898 55.6462 42.5744 56.0634C42.159 56.4807 41.5958 56.7154 41.0083 56.716Z" fill="#E6E6E6"/>
<path d="M133.718 39.4476H60.5409C60.2141 39.4476 59.9006 39.3172 59.6694 39.085C59.4383 38.8529 59.3085 38.538 59.3085 38.2097C59.3085 37.8814 59.4383 37.5665 59.6694 37.3344C59.9006 37.1022 60.2141 36.9718 60.5409 36.9718H133.718C134.045 36.9718 134.359 37.1022 134.59 37.3344C134.821 37.5665 134.951 37.8814 134.951 38.2097C134.951 38.538 134.821 38.8529 134.59 39.085C134.359 39.3172 134.045 39.4476 133.718 39.4476Z" fill="#E6E6E6"/>
<path d="M133.718 48.3032H60.541C60.2141 48.3032 59.9007 48.1728 59.6696 47.9406C59.4384 47.7085 59.3086 47.3937 59.3086 47.0654C59.3086 46.7371 59.4384 46.4222 59.6696 46.1901C59.9007 45.9579 60.2141 45.8275 60.541 45.8275H133.718C134.045 45.8275 134.359 45.9579 134.59 46.1901C134.821 46.4222 134.951 46.7371 134.951 47.0654C134.951 47.3937 134.821 47.7085 134.59 47.9406C134.359 48.1728 134.045 48.3032 133.718 48.3032Z" fill="#E6E6E6"/>
<path d="M133.718 57.1588H60.5409C60.2141 57.1588 59.9006 57.0284 59.6694 56.7962C59.4383 56.5641 59.3085 56.2492 59.3085 55.9209C59.3085 55.5926 59.4383 55.2777 59.6694 55.0456C59.9006 54.8134 60.2141 54.683 60.5409 54.683H133.718C134.045 54.683 134.359 54.8134 134.59 55.0456C134.821 55.2777 134.951 55.5926 134.951 55.9209C134.951 56.2492 134.821 56.5641 134.59 56.7962C134.359 57.0284 134.045 57.1588 133.718 57.1588Z" fill="#E6E6E6"/>
<path d="M109.369 145.662H106.173L104.652 133.281H109.369L109.369 145.662Z" fill="#A0616A"/>
<path d="M103.89 144.745H110.054V148.643H100.009C100.009 148.131 100.11 147.624 100.305 147.151C100.5 146.678 100.786 146.249 101.146 145.887C101.506 145.525 101.934 145.238 102.405 145.042C102.876 144.846 103.38 144.745 103.89 144.745Z" fill="#2F2E41"/>
<path d="M122.663 145.662H119.467L117.947 133.281H122.664L122.663 145.662Z" fill="#A0616A"/>
<path d="M117.185 144.745H123.348V148.643H113.304C113.304 148.131 113.404 147.624 113.599 147.151C113.794 146.678 114.08 146.249 114.441 145.887C114.801 145.525 115.229 145.238 115.7 145.042C116.17 144.846 116.675 144.745 117.185 144.745Z" fill="#2F2E41"/>
<path d="M122.256 142.817H119.003C118.709 142.815 118.427 142.703 118.21 142.503C117.994 142.304 117.86 142.03 117.834 141.736L115.077 108.378C115.069 108.281 115.026 108.191 114.955 108.124C114.884 108.058 114.791 108.02 114.695 108.018C114.598 108.016 114.504 108.051 114.431 108.115C114.358 108.179 114.311 108.268 114.299 108.364L110.34 141.778C110.306 142.064 110.168 142.328 109.954 142.519C109.739 142.711 109.462 142.816 109.175 142.817H105.18C104.87 142.816 104.573 142.693 104.354 142.473C104.134 142.254 104.01 141.956 104.008 141.645C103.999 139.546 103.985 137.432 103.97 135.317C103.844 116.486 103.713 97.0129 107.627 89.3841L107.663 89.3146L121.79 89.0719L121.826 89.1499C126.1 98.5315 124.802 119.49 123.548 139.758L123.427 141.711C123.408 142.011 123.277 142.291 123.059 142.496C122.842 142.702 122.555 142.816 122.256 142.817Z" fill="#2F2E41"/>
<path d="M115.564 63.9991C119.1 63.9991 121.967 61.1199 121.967 57.5682C121.967 54.0165 119.1 51.1372 115.564 51.1372C112.028 51.1372 109.161 54.0165 109.161 57.5682C109.161 61.1199 112.028 63.9991 115.564 63.9991Z" fill="#A0616A"/>
<path d="M106.835 90.4967L107.011 83.1233L105.741 77.3704C105.42 75.9458 105.439 74.4653 105.796 73.0494C106.153 71.6335 106.837 70.3223 107.794 69.2225C108.725 68.1282 109.9 67.2705 111.224 66.7192C112.548 66.1679 113.983 65.9387 115.411 66.0503H115.411C115.504 66.0575 115.596 66.0652 115.689 66.0736C116.909 66.184 118.095 66.5401 119.176 67.1207C120.257 67.7013 121.21 68.4946 121.979 69.4532C122.764 70.4171 123.348 71.53 123.696 72.7254C124.044 73.9208 124.148 75.1744 124.003 76.4112L122.467 89.9001L106.835 90.4967Z" fill="#45A29E"/>
<path d="M101.396 103.712C101.698 103.475 101.945 103.174 102.119 102.831C102.293 102.488 102.39 102.111 102.403 101.726C102.416 101.342 102.345 100.959 102.195 100.605C102.045 100.25 101.819 99.9336 101.534 99.6765L105.138 91.0488L100.381 91.9463L97.6871 100.002C97.2889 100.512 97.0907 101.151 97.1302 101.797C97.1696 102.444 97.4439 103.054 97.9011 103.511C98.3583 103.969 98.9666 104.242 99.6108 104.279C100.255 104.315 100.89 104.114 101.396 103.712Z" fill="#A0616A"/>
<path d="M128.597 104.746C128.309 104.492 128.079 104.178 127.925 103.825C127.771 103.473 127.695 103.091 127.704 102.706C127.713 102.321 127.805 101.943 127.975 101.598C128.145 101.253 128.389 100.95 128.688 100.709L125.578 91.8896L130.277 93.0576L132.51 101.254C132.879 101.786 133.04 102.435 132.964 103.078C132.888 103.722 132.58 104.315 132.097 104.746C131.615 105.176 130.992 105.414 130.347 105.414C129.702 105.414 129.079 105.176 128.597 104.746Z" fill="#A0616A"/>
<path d="M101.968 99.4838C101.803 99.4839 101.64 99.4488 101.489 99.381L98.7464 98.147C98.4825 98.0287 98.2715 97.8166 98.1539 97.5515C98.0363 97.2864 98.0204 96.987 98.1092 96.7108L102.71 82.3571L104.488 71.5433C104.551 71.1591 104.69 70.7915 104.898 70.4626C105.105 70.1336 105.376 69.8499 105.695 69.6283C106.014 69.4068 106.374 69.2519 106.754 69.173C107.134 69.094 107.525 69.0926 107.905 69.1687C108.286 69.2449 108.647 69.3971 108.967 69.6163C109.288 69.8354 109.561 70.1171 109.771 70.4446C109.981 70.772 110.123 71.1385 110.189 71.5223C110.255 71.906 110.243 72.2992 110.155 72.6784L107.453 84.2756L103.091 98.6492C103.017 98.8908 102.869 99.1024 102.667 99.2526C102.465 99.4029 102.22 99.484 101.968 99.4838V99.4838Z" fill="#45A29E"/>
<path d="M128.131 99.4838C127.88 99.4839 127.635 99.4029 127.433 99.2526C127.231 99.1023 127.082 98.8908 127.009 98.6492L122.649 84.2837L119.944 72.6783C119.856 72.2991 119.844 71.9059 119.91 71.5222C119.976 71.1384 120.119 70.7719 120.329 70.4445C120.538 70.117 120.812 69.8353 121.132 69.6161C121.453 69.397 121.814 69.2448 122.194 69.1686C122.574 69.0925 122.966 69.0939 123.346 69.1729C123.725 69.2518 124.085 69.4067 124.404 69.6282C124.723 69.8498 124.994 70.1335 125.202 70.4625C125.409 70.7915 125.549 71.159 125.612 71.5433L127.394 82.376L131.99 96.7107C132.079 96.9869 132.063 97.2863 131.946 97.5514C131.828 97.8165 131.617 98.0286 131.353 98.147L128.611 99.381C128.46 99.4488 128.296 99.4838 128.131 99.4838Z" fill="#45A29E"/>
<path d="M115.696 50.4597C113.916 49.6854 111.592 50.6488 110.874 52.4581C110.427 53.5841 110.563 54.8541 110.809 56.0408C111.056 57.2275 111.407 58.4118 111.369 59.6234C111.332 60.835 110.812 62.1209 109.742 62.6815C109.103 63.0164 108.355 63.0536 107.661 63.2534C106.968 63.4531 106.253 63.9201 106.153 64.6375C106.002 65.7227 107.313 66.5492 107.304 67.6449C107.295 68.8059 105.85 69.4953 105.663 70.6409C105.631 70.9764 105.684 71.3146 105.817 71.6237C105.951 71.9329 106.16 72.2029 106.426 72.4083C106.963 72.813 107.572 73.1093 108.221 73.281C113.213 74.8835 118.527 75.1876 123.668 74.165C124.689 73.9604 125.74 73.6837 126.534 73.0062C127.328 72.3287 127.782 71.1428 127.326 70.2023C126.642 68.7924 124.47 68.7121 123.713 67.3402C123.26 66.5173 123.468 65.507 123.564 64.5712C123.811 62.1543 124.38 59.3308 123.783 56.9766C123.243 54.8496 122.07 52.1011 120.394 50.6925C119.191 49.6818 116.895 50.1423 115.358 50.4541L115.696 50.4597Z" fill="#2F2E41"/>
<path d="M167.739 149H76.5006C76.4314 149 76.3651 148.972 76.3162 148.923C76.2673 148.874 76.2399 148.808 76.2399 148.738C76.2399 148.669 76.2673 148.602 76.3162 148.553C76.3651 148.504 76.4314 148.476 76.5006 148.476H167.739C167.808 148.476 167.875 148.504 167.924 148.553C167.973 148.602 168 148.669 168 148.738C168 148.808 167.973 148.874 167.924 148.923C167.875 148.972 167.808 149 167.739 149Z" fill="#CCCCCC"/>
<path d="M158.132 143.038C154.373 148.094 146.57 148.626 146.57 148.626C146.57 148.626 144.862 140.96 148.621 135.904C152.38 130.848 160.183 130.316 160.183 130.316C160.183 130.316 161.891 137.981 158.132 143.038Z" fill="#E6E6E6"/>
<path d="M138.983 144.938C141.464 148.275 146.613 148.626 146.613 148.626C146.613 148.626 147.74 143.568 145.26 140.231C142.779 136.895 137.63 136.543 137.63 136.543C137.63 136.543 136.503 141.602 138.983 144.938Z" fill="#E6E6E6"/>
</g>
<defs>
<clipPath id="clip0">
<rect width="168" height="149" fill="white"/>
</clipPath>
</defs>
</svg>
