<svg width="220" height="158" viewBox="0 0 220 158" fill="none" xmlns="http://www.w3.org/2000/svg">
<g clip-path="url(#clip0)">
<path d="M91.6466 158H18.785C18.4273 158 18.0844 157.851 17.8315 157.587C17.5786 157.323 17.4363 156.965 17.4358 156.591V91.5347C17.4363 91.1613 17.5786 90.8032 17.8315 90.5391C18.0844 90.275 18.4273 90.1265 18.785 90.126H91.6466C92.0043 90.1265 92.3472 90.275 92.6001 90.5391C92.853 90.8032 92.9953 91.1613 92.9958 91.5347V156.591C92.9954 156.965 92.8531 157.323 92.6002 157.587C92.3472 157.851 92.0043 158 91.6466 158V158ZM18.785 90.6884C18.5706 90.6889 18.3652 90.778 18.2136 90.9363C18.062 91.0945 17.9767 91.3091 17.9762 91.5329V156.591C17.9767 156.815 18.062 157.03 18.2136 157.188C18.3652 157.346 18.5706 157.435 18.785 157.436H91.6466C91.861 157.435 92.0665 157.346 92.2181 157.188C92.3697 157.03 92.455 156.815 92.4554 156.591V91.5347C92.4549 91.3109 92.3696 91.0964 92.218 90.9381C92.0664 90.7798 91.861 90.6907 91.6466 90.6902L18.785 90.6884Z" fill="#E6E6E6"/>
<path d="M30.1058 152.17C33.1413 152.17 35.602 149.601 35.602 146.431C35.602 143.262 33.1413 140.693 30.1058 140.693C27.0704 140.693 24.6096 143.262 24.6096 146.431C24.6096 149.601 27.0704 152.17 30.1058 152.17Z" fill="#E6E6E6"/>
<path d="M42.8 142.605C42.5571 142.605 42.3241 142.706 42.1523 142.885C41.9805 143.065 41.884 143.308 41.884 143.562C41.884 143.815 41.9805 144.059 42.1523 144.238C42.3241 144.417 42.5571 144.518 42.8 144.518H85.9851C86.228 144.518 86.461 144.417 86.6328 144.238C86.8046 144.059 86.9011 143.815 86.9011 143.562C86.9011 143.308 86.8046 143.065 86.6328 142.885C86.461 142.706 86.228 142.605 85.9851 142.605H42.8Z" fill="#E6E6E6"/>
<path d="M42.8 148.344C42.5571 148.344 42.3241 148.445 42.1523 148.624C41.9805 148.804 41.884 149.047 41.884 149.301C41.884 149.554 41.9805 149.798 42.1523 149.977C42.3241 150.156 42.5571 150.257 42.8 150.257H61.3827C61.6257 150.257 61.8587 150.156 62.0305 149.977C62.2022 149.798 62.2987 149.554 62.2987 149.301C62.2987 149.047 62.2022 148.804 62.0305 148.624C61.8587 148.445 61.6257 148.344 61.3827 148.344H42.8Z" fill="#E6E6E6"/>
<path d="M108.958 135.309H36.0958C35.7381 135.309 35.3952 135.16 35.1422 134.896C34.8893 134.632 34.747 134.274 34.7466 133.9V100.514C34.747 100.14 34.8893 99.782 35.1422 99.5179C35.3952 99.2538 35.7381 99.1053 36.0958 99.1049H108.958C109.315 99.1053 109.658 99.2538 109.911 99.5179C110.164 99.782 110.306 100.14 110.307 100.514V133.9C110.306 134.274 110.164 134.632 109.911 134.896C109.658 135.16 109.315 135.309 108.958 135.309Z" fill="#45A29E"/>
<path d="M50.9341 110.742C50.6911 110.742 50.4581 110.843 50.2864 111.022C50.1146 111.201 50.0181 111.445 50.0181 111.698C50.0181 111.952 50.1146 112.195 50.2864 112.375C50.4581 112.554 50.6911 112.655 50.9341 112.655H94.1194C94.3624 112.655 94.5954 112.554 94.7671 112.375C94.9389 112.195 95.0354 111.952 95.0354 111.698C95.0354 111.445 94.9389 111.201 94.7671 111.022C94.5954 110.843 94.3624 110.742 94.1194 110.742H50.9341Z" fill="white"/>
<path d="M50.9341 116.284C50.6911 116.284 50.4581 116.385 50.2864 116.564C50.1146 116.743 50.0181 116.987 50.0181 117.24C50.0181 117.494 50.1146 117.737 50.2864 117.917C50.4581 118.096 50.6911 118.197 50.9341 118.197H94.1194C94.3624 118.197 94.5954 118.096 94.7671 117.917C94.9389 117.737 95.0354 117.494 95.0354 117.24C95.0354 116.987 94.9389 116.743 94.7671 116.564C94.5954 116.385 94.3624 116.284 94.1194 116.284H50.9341Z" fill="white"/>
<path d="M50.9341 121.759C50.6911 121.759 50.4581 121.86 50.2864 122.039C50.1146 122.219 50.0181 122.462 50.0181 122.715C50.0181 122.969 50.1146 123.212 50.2864 123.392C50.4581 123.571 50.6911 123.672 50.9341 123.672H69.5168C69.7597 123.672 69.9927 123.571 70.1645 123.392C70.3363 123.212 70.4328 122.969 70.4328 122.715C70.4328 122.462 70.3363 122.219 70.1645 122.039C69.9927 121.86 69.7597 121.759 69.5168 121.759H50.9341Z" fill="white"/>
<path d="M220 157.361H0V157.888H220V157.361Z" fill="#3F3D56"/>
<path d="M190.98 157.361H118.118C117.761 157.36 117.418 157.212 117.165 156.948C116.912 156.684 116.77 156.326 116.769 155.952V137.08C116.77 136.707 116.912 136.349 117.165 136.085C117.418 135.82 117.761 135.672 118.118 135.671H190.98C191.338 135.672 191.68 135.82 191.933 136.085C192.186 136.349 192.329 136.707 192.329 137.08V155.952C192.329 156.325 192.186 156.683 191.933 156.948C191.681 157.212 191.338 157.36 190.98 157.361ZM118.118 136.234C117.904 136.234 117.698 136.323 117.547 136.482C117.395 136.64 117.31 136.854 117.309 137.078V155.95C117.31 156.174 117.395 156.388 117.547 156.547C117.698 156.705 117.904 156.794 118.118 156.794H190.98C191.194 156.794 191.4 156.705 191.551 156.547C191.703 156.388 191.788 156.174 191.789 155.95V137.08C191.788 136.856 191.703 136.642 191.551 136.483C191.4 136.325 191.194 136.236 190.98 136.236L118.118 136.234Z" fill="#E6E6E6"/>
<path d="M129.44 151.531C132.475 151.531 134.936 148.961 134.936 145.792C134.936 142.622 132.475 140.053 129.44 140.053C126.404 140.053 123.943 142.622 123.943 145.792C123.943 148.961 126.404 151.531 129.44 151.531Z" fill="#E6E6E6"/>
<path d="M142.133 141.966C141.89 141.966 141.657 142.067 141.486 142.246C141.314 142.425 141.217 142.669 141.217 142.922C141.217 143.176 141.314 143.419 141.486 143.599C141.657 143.778 141.89 143.879 142.133 143.879H185.318C185.561 143.879 185.794 143.778 185.966 143.599C186.138 143.419 186.234 143.176 186.234 142.922C186.234 142.669 186.138 142.425 185.966 142.246C185.794 142.067 185.561 141.966 185.318 141.966H142.133Z" fill="#E6E6E6"/>
<path d="M142.133 147.705C141.89 147.705 141.657 147.806 141.486 147.985C141.314 148.165 141.217 148.408 141.217 148.662C141.217 148.915 141.314 149.158 141.486 149.338C141.657 149.517 141.89 149.618 142.133 149.618H160.716C160.959 149.618 161.192 149.517 161.364 149.338C161.535 149.158 161.632 148.915 161.632 148.662C161.632 148.408 161.535 148.165 161.364 147.985C161.192 147.806 160.959 147.705 160.716 147.705H142.133Z" fill="#E6E6E6"/>
<path d="M178.383 135.222L111.58 103.918C111.252 103.764 110.994 103.483 110.863 103.137C110.731 102.792 110.737 102.409 110.878 102.074L118.047 85.1317C118.189 84.7966 118.456 84.5363 118.788 84.4079C119.12 84.2794 119.491 84.2934 119.819 84.4467L186.622 115.751C186.95 115.905 187.208 116.185 187.339 116.531C187.471 116.877 187.465 117.26 187.324 117.595L180.155 134.537C180.013 134.872 179.746 135.132 179.414 135.26C179.082 135.389 178.711 135.375 178.383 135.222L178.383 135.222ZM119.606 84.9516C119.409 84.86 119.187 84.8517 118.988 84.9287C118.788 85.0056 118.629 85.1615 118.543 85.3623L111.374 102.304C111.29 102.505 111.286 102.734 111.365 102.941C111.444 103.149 111.599 103.317 111.795 103.409L178.598 134.713C178.795 134.805 179.017 134.813 179.216 134.736C179.415 134.659 179.575 134.503 179.66 134.303L186.829 117.363C186.913 117.162 186.916 116.932 186.838 116.725C186.759 116.518 186.604 116.35 186.408 116.257L119.606 84.9516Z" fill="#E6E6E6"/>
<path d="M124.241 103.7C127.04 105.016 130.29 103.755 131.501 100.884C132.712 98.0134 131.425 94.6193 128.626 93.3034C125.827 91.9875 122.576 93.2481 121.365 96.1191C120.154 98.99 121.442 102.384 124.241 103.7Z" fill="#E6E6E6"/>
<path d="M139.506 100.4C139.284 100.297 139.033 100.287 138.808 100.374C138.583 100.46 138.402 100.636 138.306 100.861C138.21 101.087 138.206 101.345 138.295 101.578C138.384 101.81 138.559 101.999 138.781 102.103L178.273 120.499C178.495 120.602 178.746 120.612 178.971 120.525C179.196 120.439 179.376 120.263 179.473 120.038C179.569 119.812 179.573 119.554 179.483 119.321C179.394 119.089 179.219 118.9 178.997 118.796L139.506 100.4Z" fill="#E6E6E6"/>
<path d="M137.27 105.647C137.048 105.543 136.796 105.533 136.571 105.62C136.346 105.707 136.165 105.883 136.069 106.109C135.973 106.335 135.969 106.593 136.058 106.827C136.148 107.06 136.323 107.25 136.545 107.353L153.548 115.288C153.77 115.392 154.022 115.402 154.247 115.315C154.472 115.228 154.653 115.052 154.749 114.826C154.845 114.6 154.849 114.341 154.76 114.108C154.67 113.875 154.495 113.685 154.273 113.582L137.27 105.647Z" fill="#E6E6E6"/>
<path d="M123.435 82.5686L50.7943 89.4038C50.4376 89.4369 50.0839 89.3226 49.8106 89.0861C49.5373 88.8495 49.3669 88.5099 49.3365 88.1419L47.8279 69.5408C47.7986 69.1726 47.9118 68.8064 48.1428 68.5223C48.3739 68.2383 48.7039 68.0597 49.0605 68.0257L121.701 61.1905C122.058 61.1574 122.412 61.2717 122.685 61.5082C122.958 61.7448 123.129 62.0843 123.159 62.4524L124.668 81.0533C124.697 81.4215 124.584 81.7878 124.353 82.0719C124.122 82.3559 123.792 82.5346 123.435 82.5686ZM49.1054 68.58C48.8917 68.6006 48.694 68.7077 48.5556 68.8779C48.4171 69.0481 48.3491 69.2676 48.3666 69.4883L49.8751 88.0891C49.8935 88.3096 49.9957 88.5131 50.1595 88.6549C50.3233 88.7967 50.5353 88.8652 50.749 88.8456L123.39 82.0104C123.604 81.9899 123.801 81.8828 123.94 81.7125C124.078 81.5423 124.146 81.3228 124.129 81.1021L122.62 62.5031C122.602 62.2825 122.5 62.079 122.336 61.9372C122.172 61.7954 121.96 61.7269 121.746 61.7466L49.1054 68.58Z" fill="#E6E6E6"/>
<path d="M61.6383 82.5528C64.6718 82.266 66.925 79.4834 66.671 76.3377C66.4171 73.1919 63.7521 70.8742 60.7186 71.161C57.6852 71.4477 55.432 74.2303 55.6859 77.3761C55.9399 80.5218 58.6049 82.8395 61.6383 82.5528Z" fill="#E6E6E6"/>
<path d="M73.5028 71.9469C73.2608 71.9693 73.0367 72.0882 72.8799 72.2775C72.7232 72.4668 72.6465 72.711 72.6667 72.9564C72.687 73.2018 72.8025 73.4282 72.988 73.5859C73.1734 73.7436 73.4136 73.8196 73.6556 73.7972L116.674 69.8216C116.916 69.7993 117.14 69.6804 117.297 69.491C117.454 69.3017 117.531 69.0575 117.51 68.8122C117.49 68.5668 117.375 68.3404 117.189 68.1827C117.004 68.025 116.764 67.949 116.522 67.9713L73.5028 71.9469Z" fill="#E6E6E6"/>
<path d="M73.981 77.6474C73.7389 77.67 73.5148 77.7898 73.358 77.9807C73.2012 78.1715 73.1245 78.4177 73.1448 78.665C73.165 78.9123 73.2806 79.1406 73.4661 79.2995C73.6516 79.4585 73.8917 79.5351 74.1338 79.5126L92.6481 77.7881C92.8902 77.7655 93.1143 77.6457 93.2711 77.4548C93.4279 77.264 93.5046 77.0178 93.4844 76.7705C93.4641 76.5232 93.3485 76.2949 93.163 76.136C92.9776 75.977 92.7374 75.9004 92.4953 75.9229L73.981 77.6474Z" fill="#E6E6E6"/>
<path d="M109.69 21.9607C114.296 21.9607 118.031 18.0615 118.031 13.2516C118.031 8.44169 114.296 4.54248 109.69 4.54248C105.083 4.54248 101.349 8.44169 101.349 13.2516C101.349 18.0615 105.083 21.9607 109.69 21.9607Z" fill="#2F2E41"/>
<path d="M109.859 22.7299C113.287 22.7299 116.067 19.8279 116.067 16.248C116.067 12.6681 113.287 9.76599 109.859 9.76599C106.43 9.76599 103.651 12.6681 103.651 16.248C103.651 19.8279 106.43 22.7299 109.859 22.7299Z" fill="#FEB8B8"/>
<path d="M119.294 25.6555C119.294 25.6555 107.92 23.5442 100.59 26.1833L102.739 43.9975L102.233 46.9005L117.399 46.3727L116.388 43.4696L119.294 25.6555Z" fill="#FEB8B8"/>
<path d="M111.39 44.8794C108.772 44.8469 106.156 44.6739 103.555 44.3611C103.02 44.2997 102.528 44.0313 102.174 43.6088C101.82 43.1864 101.631 42.6407 101.644 42.0796L101.828 33.7486L101.85 33.7162C104.047 30.3927 102.977 27.9653 102.153 26.6584C101.979 26.3823 101.887 26.0592 101.887 25.7289C101.761 25.5441 101.732 25.8357 101.811 25.6288C101.85 25.5262 101.913 25.4353 101.994 25.3644C102.075 25.2935 102.172 25.2449 102.275 25.2229L103.53 24.9611C103.681 24.9297 103.837 24.9566 103.97 25.0368C104.103 25.117 104.203 25.245 104.252 25.3969C104.674 26.7104 106.317 30.9367 110.083 30.9356C113.228 30.9356 114.402 26.2878 114.472 25.2137C114.484 25.0473 114.555 24.8916 114.672 24.7779C114.789 24.6642 114.943 24.6009 115.102 24.6009H116.669C116.769 24.5985 116.867 24.6194 116.957 24.662C117.048 24.7047 117.128 24.768 117.192 24.8474C117.27 24.9484 117.317 25.0713 117.328 25.2006C117.339 25.3299 117.313 25.4597 117.253 25.5734C115.465 29.0069 118.079 34.4409 118.105 34.4937L118.122 34.528L117.384 42.5227C117.34 42.9917 117.155 43.4343 116.857 43.7883C116.559 44.1422 116.162 44.3897 115.723 44.496C114.582 44.7755 113.041 44.8794 111.39 44.8794Z" fill="#CCCCCC"/>
<path d="M96.9563 63.4293C95.2578 63.4293 93.7028 63.234 92.4673 62.7725C90.9988 62.2238 90.0767 61.3365 89.7264 60.1333C89.5609 59.6221 89.5115 59.0777 89.5819 58.5431C89.6524 58.0085 89.8408 57.4983 90.1324 57.0527C92.3048 53.6561 99.8435 52.6981 100.855 52.5849L101.391 47.9223C101.454 47.3843 101.702 46.8882 102.088 46.5252C102.473 46.1623 102.971 45.9569 103.491 45.9467L116.187 45.7398C116.697 45.7269 117.195 45.9058 117.589 46.2437C117.983 46.5817 118.248 47.0563 118.336 47.5811L119.057 51.7245L110.732 55.9406L111.99 59.6208L111.908 59.6781C109.472 61.374 102.464 63.4291 96.9563 63.4293Z" fill="#2F2E41"/>
<path d="M117.904 51.1231C117.904 51.1231 129.531 49.5396 128.773 55.8735C128.014 62.2074 119.168 66.694 105.772 55.8735L107.288 52.7066C107.288 52.7066 114.871 54.8179 117.904 53.2344V51.1231Z" fill="#2F2E41"/>
<path d="M107.541 53.4983C107.541 53.4983 107.541 50.3313 105.014 50.5952C102.486 50.8591 97.9363 51.123 97.9363 51.123C97.9363 51.123 96.4198 52.1787 98.4419 52.7065C100.464 53.2343 106.53 55.8735 106.53 55.8735L107.541 53.4983Z" fill="#FEB8B8"/>
<path d="M111.838 52.9705C111.838 52.9705 111.838 49.8036 114.365 50.0675C116.893 50.3314 121.443 50.5953 121.443 50.5953C121.443 50.5953 122.959 51.651 120.937 52.1788C118.915 52.7066 112.849 55.3458 112.849 55.3458L111.838 52.9705Z" fill="#FEB8B8"/>
<path d="M126.984 52.3706L123.212 38.7192C123.212 38.7192 122.454 33.9688 121.696 29.4822C120.937 24.9957 118.157 25.5235 118.157 25.5235L117.652 25.7875V32.9131L118.157 39.5109L123.203 53.9998C123.055 54.5022 123.046 55.0384 123.179 55.5457C123.311 56.0531 123.579 56.5106 123.951 56.8649C124.323 57.2192 124.784 57.4556 125.28 57.5465C125.776 57.6375 126.287 57.5792 126.752 57.3784C127.218 57.1777 127.619 56.8428 127.909 56.4129C128.199 55.983 128.366 55.4758 128.39 54.9506C128.414 54.4254 128.295 53.9038 128.046 53.4468C127.797 52.9897 127.428 52.6161 126.984 52.3696V52.3706Z" fill="#FEB8B8"/>
<path d="M101.475 26.0514C101.475 26.0514 98.6946 25.5236 97.9363 30.0101C97.178 34.4966 96.4197 39.247 96.4197 39.247L92.6484 52.8985C92.2035 53.145 91.8351 53.5186 91.586 53.9757C91.337 54.4327 91.2176 54.9543 91.2418 55.4795C91.2661 56.0047 91.433 56.5119 91.723 56.9418C92.013 57.3717 92.4141 57.7066 92.8796 57.9073C93.3451 58.108 93.8557 58.1664 94.3517 58.0754C94.8477 57.9845 95.3087 57.7481 95.6808 57.3938C96.053 57.0395 96.3209 56.582 96.4533 56.0746C96.5857 55.5673 96.5771 55.0311 96.4286 54.5287L101.475 40.0398L101.98 33.442V26.9054C101.98 26.7281 101.933 26.5543 101.844 26.4034C101.755 26.2526 101.627 26.1307 101.475 26.0514Z" fill="#FEB8B8"/>
<path d="M103.714 12.2662C106.138 13.8115 108.871 14.7518 111.701 15.014L110.859 13.9608C111.472 14.1973 112.117 14.3309 112.77 14.3567C113.097 14.3666 113.422 14.2963 113.718 14.1515C114.014 14.0067 114.274 13.7915 114.476 13.523C114.641 13.2442 114.739 12.9278 114.762 12.6008C114.785 12.2738 114.731 11.946 114.606 11.6452C114.35 11.0453 113.951 10.5239 113.447 10.1306C112.553 9.39258 111.498 8.89683 110.377 8.68754C109.255 8.47826 108.102 8.56194 107.019 8.93113C106.275 9.16274 105.61 9.60835 105.098 10.2169C104.846 10.5234 104.672 10.8902 104.589 11.2846C104.507 11.6789 104.52 12.0884 104.627 12.4763" fill="#2F2E41"/>
<path d="M110.475 5.50915C108.517 3.43598 106.147 1.83615 103.533 0.822305C101.855 0.173343 100.029 -0.227797 98.2745 0.140889C96.5204 0.509576 94.8623 1.77715 94.3719 3.57387C93.9718 5.04334 94.3851 6.62575 95.0061 8.00918C95.6271 9.39262 96.4564 10.6747 96.9587 12.1104C97.4713 13.5747 97.6256 15.1495 97.4075 16.6918C97.1893 18.2341 96.6057 19.6951 95.7096 20.9421C94.8134 22.1892 93.6332 23.1827 92.2759 23.8327C90.9187 24.4826 89.4275 24.7682 87.9377 24.6637C89.6613 24.9049 91.2501 25.7507 92.935 26.201C94.6199 26.6512 96.6083 26.6206 97.8602 25.3604C99.1849 24.0271 99.2115 21.8591 99.1473 19.9391L98.8617 11.3765C98.8131 9.92098 98.7717 8.41852 99.2744 7.05989C99.7771 5.70127 100.972 4.51155 102.367 4.52395C103.424 4.53345 104.36 5.20194 105.208 5.86146C106.056 6.52098 106.952 7.22457 108.006 7.32248C109.06 7.4204 110.261 6.60702 110.182 5.50597" fill="#2F2E41"/>
<path d="M210.619 145.546C210.519 149.47 209.889 153.36 208.749 157.101C208.724 157.188 208.696 157.274 208.668 157.361H201.689C201.696 157.283 201.704 157.196 201.711 157.101C202.177 151.515 199.518 117.923 196.31 112.109C196.591 112.58 211.161 127.797 210.619 145.546Z" fill="#E6E6E6"/>
<path d="M210.096 157.101C210.037 157.188 209.977 157.275 209.914 157.361H204.678C204.718 157.287 204.764 157.2 204.817 157.101C205.682 155.471 208.242 150.598 210.619 145.546C213.172 140.117 215.516 134.482 215.318 132.442C215.38 132.902 217.147 146.925 210.096 157.101Z" fill="#E6E6E6"/>
</g>
<defs>
<clipPath id="clip0">
<rect width="220" height="158" fill="white"/>
</clipPath>
</defs>
</svg>
