<svg width="241" height="106" viewBox="0 0 241 106" fill="none" xmlns="http://www.w3.org/2000/svg">
<g clip-path="url(#clip0)">
<path d="M71.6982 87.2771C70.8696 93.765 67.823 99.7009 64.5728 105.419C64.4653 105.614 64.3547 105.805 64.2415 106H30.4607C29.7775 105.823 29.1031 105.628 28.4315 105.419C24.6161 104.258 21.014 102.487 17.7653 100.174C5.33741 91.2256 0.555145 74.3158 2.71519 59.1638C4.05831 49.75 8.19216 40.1387 16.2419 35.0687C20.4922 32.3869 25.9517 31.5153 30.8444 32.5119C30.9724 32.5351 31.1003 32.5642 31.2311 32.5903C35.4406 33.5375 39.1907 35.8909 41.3246 39.6826C45.1619 46.4959 42.877 54.9363 40.9903 62.5196C39.1094 70.1029 38.0889 79.1795 43.5486 84.7726C41.7461 79.4701 43.5253 73.1449 47.8307 69.5595C51.0838 66.8545 55.6131 65.8405 59.7441 66.6802C60.1394 66.7645 60.5291 66.8604 60.9128 66.9766C61.8402 67.248 62.7343 67.6222 63.5786 68.0923C70.0178 71.6863 72.6255 79.964 71.6982 87.2771Z" fill="#F2F2F2"/>
<path d="M51.6682 105.419C52.6042 105.637 53.5432 105.829 54.488 106H49.3803C48.7115 105.82 48.0458 105.628 47.386 105.419C45.9353 104.966 44.5069 104.446 43.1009 103.859C37.4611 101.494 32.266 97.9432 28.3356 93.2189C26.4134 90.93 24.8437 88.3673 23.6784 85.6153C22.4148 82.5049 21.6118 79.2269 21.2946 75.8849C20.5823 69.028 21.3091 61.9822 22.6667 55.2473C24.0678 48.267 26.3293 41.4871 29.3997 35.063C29.7689 34.2931 30.1507 33.528 30.545 32.7677C30.5722 32.7051 30.6132 32.6495 30.6651 32.6052C30.717 32.5609 30.7783 32.529 30.8444 32.512C30.9786 32.486 31.1177 32.5142 31.2311 32.5904C31.3672 32.6685 31.4682 32.7959 31.5131 32.9462C31.558 33.0965 31.5434 33.2583 31.4724 33.3982C28.3067 39.5682 25.907 46.1016 24.3267 52.8532C22.7801 59.4399 21.9022 66.3317 22.2016 73.1043C22.4865 79.4324 24.1407 85.656 27.8937 90.8306C31.3212 95.5549 36.0539 99.2797 41.2897 101.816C44.6037 103.401 48.0849 104.609 51.6682 105.419Z" fill="white"/>
<path d="M62.878 106H61.3721C61.2034 105.808 61.0406 105.614 60.8808 105.419C57.4507 101.254 55.127 96.2911 54.1246 90.9904C52.9073 84.3753 53.8542 77.5443 56.8253 71.5092C57.6542 69.8169 58.6309 68.201 59.744 66.6803C60.1394 66.7646 60.529 66.8604 60.9127 66.9767C57.9848 70.8537 56.0155 75.3676 55.1653 80.1501C54.407 84.6314 54.6591 89.2255 55.9034 93.5971C57.1477 97.9687 59.3527 102.007 62.3576 105.419C62.5261 105.614 62.7006 105.808 62.878 106Z" fill="white"/>
<path d="M198.536 101.059C198.754 102.771 199.558 104.338 200.416 105.847C200.445 105.898 200.474 105.949 200.504 106H209.419C209.599 105.953 209.777 105.902 209.954 105.847C210.961 105.54 211.912 105.073 212.769 104.463C216.049 102.101 217.312 97.638 216.741 93.6391C216.387 91.1546 215.296 88.618 213.172 87.2799C212.018 86.5777 210.641 86.3367 209.318 86.6052C209.284 86.6113 209.25 86.6189 209.216 86.6259C208.665 86.7323 208.142 86.9542 207.683 87.2768C207.224 87.5994 206.838 88.0154 206.552 88.4976C205.539 90.2958 206.142 92.5234 206.64 94.5247C207.136 96.5261 207.406 98.9216 205.965 100.398C206.176 99.7804 206.219 99.118 206.089 98.4787C205.959 97.8393 205.661 97.246 205.226 96.7598C204.791 96.2736 204.234 95.912 203.613 95.7121C202.991 95.5123 202.328 95.4815 201.691 95.6228C201.586 95.645 201.483 95.6703 201.382 95.701C201.137 95.7727 200.901 95.8714 200.679 95.9955C198.979 96.944 198.291 99.1286 198.536 101.059Z" fill="#F2F2F2"/>
<path d="M203.822 105.847C203.575 105.904 203.327 105.955 203.078 106H204.426C204.602 105.952 204.778 105.902 204.952 105.847C205.335 105.727 205.712 105.59 206.083 105.435C207.588 104.824 208.924 103.861 209.98 102.627C210.487 102.023 210.901 101.346 211.209 100.62C211.542 99.7992 211.754 98.9341 211.838 98.052C211.991 96.2286 211.869 94.3926 211.476 92.6054C211.106 90.7632 210.509 88.9739 209.699 87.2784C209.601 87.0752 209.501 86.8733 209.397 86.6726C209.389 86.6561 209.379 86.6414 209.365 86.6297C209.351 86.6181 209.335 86.6096 209.318 86.6052C209.282 86.5983 209.245 86.6057 209.216 86.6258C209.18 86.6464 209.153 86.6801 209.141 86.7197C209.129 86.7594 209.133 86.8021 209.152 86.839C209.987 88.4674 210.621 90.1917 211.038 91.9736C211.467 93.7213 211.656 95.5195 211.599 97.3182C211.568 98.9912 211.045 100.618 210.096 101.997C209.173 103.238 207.959 104.233 206.561 104.896C205.686 105.314 204.768 105.633 203.822 105.847Z" fill="white"/>
<path d="M200.863 106H201.261C201.305 105.949 201.348 105.898 201.39 105.847C202.296 104.747 202.909 103.438 203.174 102.039C203.495 100.293 203.245 98.49 202.461 96.8972C202.242 96.4506 201.984 96.0241 201.691 95.6228C201.586 95.645 201.483 95.6703 201.382 95.701C202.155 96.7242 202.675 97.9155 202.899 99.1777C203.099 100.36 203.033 101.573 202.704 102.727C202.376 103.88 201.794 104.946 201.001 105.847C200.956 105.898 200.91 105.949 200.863 106Z" fill="white"/>
<path d="M118.177 61.7436H90.2744L89.9786 53.1694C89.9658 52.7977 90.0337 52.4276 90.1777 52.0847C90.3217 51.7418 90.5384 51.4341 90.8127 51.1829C91.0871 50.9316 91.4127 50.7428 91.7671 50.6294C92.1215 50.5159 92.4962 50.4806 92.8656 50.5258L109.103 52.5129H109.105C111.512 52.5194 113.819 53.4793 115.519 55.1823C117.22 56.8853 118.176 59.1924 118.177 61.5984V61.7436Z" fill="#45A29E"/>
<path d="M105.741 31.3293H86.2799C86.0211 31.3293 85.7648 31.3802 85.5257 31.4791C85.2866 31.5781 85.0693 31.7232 84.8863 31.9061C84.7033 32.089 84.5581 32.3061 84.4591 32.5451C84.3601 32.7841 84.3091 33.0403 84.3092 33.299V52.7488C84.3091 53.0075 84.3601 53.2636 84.4591 53.5026C84.5581 53.7416 84.7033 53.9588 84.8863 54.1417C85.0693 54.3246 85.2866 54.4696 85.5257 54.5686C85.7648 54.6676 86.0211 54.7185 86.2799 54.7184H105.741C106 54.7185 106.256 54.6676 106.495 54.5686C106.734 54.4697 106.951 54.3246 107.134 54.1417C107.317 53.9588 107.463 53.7416 107.562 53.5026C107.661 53.2636 107.712 53.0075 107.711 52.7488V33.299C107.712 33.0403 107.661 32.7841 107.562 32.5451C107.463 32.3061 107.317 32.089 107.134 31.9061C106.951 31.7232 106.734 31.5781 106.495 31.4791C106.256 31.3802 106 31.3293 105.741 31.3293Z" fill="#CCCCCC"/>
<path d="M101.358 45.8733L92.1696 47.6616C91.6246 47.767 91.06 47.6521 90.5997 47.342C90.1393 47.0319 89.8209 46.5519 89.7141 46.0075L89.0078 42.3825C88.9023 41.8378 89.0173 41.2735 89.3276 40.8134C89.6379 40.3534 90.1181 40.0351 90.6629 39.9284L99.8512 38.1401C100.396 38.0347 100.961 38.1496 101.421 38.4597C101.882 38.7698 102.2 39.2497 102.307 39.7942L103.013 43.4191C103.119 43.9639 103.004 44.5282 102.693 44.9882C102.383 45.4483 101.903 45.7666 101.358 45.8733Z" fill="#3F3D56"/>
<path d="M99.5196 41.5907L92.5075 42.9555C92.3793 42.9804 92.2463 42.9535 92.138 42.8805C92.0296 42.8075 91.9547 42.6945 91.9297 42.5663C91.9048 42.4381 91.9318 42.3052 92.0048 42.1969C92.0778 42.0886 92.1909 42.0138 92.3192 41.9888L99.3313 40.6241C99.4595 40.5991 99.5925 40.6261 99.7008 40.6991C99.8092 40.7721 99.8841 40.8851 99.909 41.0133C99.934 41.1415 99.907 41.2743 99.834 41.3826C99.761 41.4909 99.6479 41.5658 99.5196 41.5907Z" fill="white"/>
<path d="M98.1567 43.6118L94.5297 44.3177C94.4015 44.3427 94.2685 44.3157 94.1602 44.2427C94.0518 44.1697 93.9769 44.0567 93.952 43.9285C93.927 43.8003 93.954 43.6675 94.027 43.5592C94.1 43.4509 94.2131 43.3761 94.3414 43.3511L97.9684 42.6452C98.0319 42.6328 98.0972 42.6331 98.1606 42.646C98.224 42.6588 98.2843 42.6841 98.3379 42.7202C98.3916 42.7563 98.4376 42.8027 98.4733 42.8566C98.509 42.9105 98.5338 42.9709 98.5461 43.0344C98.5585 43.0979 98.5582 43.1631 98.5454 43.2265C98.5325 43.2899 98.5073 43.3501 98.4711 43.4037C98.4349 43.4573 98.3885 43.5033 98.3346 43.539C98.2807 43.5747 98.2202 43.5995 98.1567 43.6118Z" fill="white"/>
<path d="M107.711 33.299V35.8841H84.3092V33.299C84.3091 33.0403 84.3601 32.7841 84.4591 32.5451C84.5581 32.3061 84.7033 32.089 84.8863 31.9061C85.0693 31.7232 85.2866 31.5781 85.5257 31.4791C85.7648 31.3802 86.0211 31.3293 86.2799 31.3293H105.741C106 31.3293 106.256 31.3802 106.495 31.4791C106.734 31.5781 106.951 31.7232 107.134 31.9061C107.317 32.089 107.463 32.3061 107.562 32.5451C107.661 32.7841 107.712 33.0403 107.711 33.299Z" fill="#B3B3B3"/>
<path d="M154.444 36.6936C154.309 36.2578 154.079 35.8568 153.772 35.519C153.466 35.1812 153.088 34.9147 152.667 34.7384C152.246 34.5621 151.791 34.4802 151.335 34.4985C150.879 34.5168 150.432 34.6349 150.027 34.8444L123.253 25.2439L122.074 31.9286L148.762 39.2636C149.16 39.9213 149.784 40.4104 150.519 40.6384C151.253 40.8664 152.045 40.8174 152.745 40.5006C153.445 40.1839 154.005 39.6213 154.318 38.9197C154.631 38.218 154.676 37.426 154.444 36.6936Z" fill="#FFB8B8"/>
<path opacity="0.2" d="M154.444 36.6936C154.309 36.2578 154.079 35.8568 153.772 35.519C153.466 35.1812 153.088 34.9147 152.667 34.7384C152.246 34.5621 151.791 34.4802 151.335 34.4985C150.879 34.5168 150.432 34.6349 150.027 34.8444L123.253 25.2439L122.074 31.9286L148.762 39.2636C149.16 39.9213 149.784 40.4104 150.519 40.6384C151.253 40.8664 152.045 40.8174 152.745 40.5006C153.445 40.1839 154.005 39.6213 154.318 38.9197C154.631 38.218 154.676 37.426 154.444 36.6936Z" fill="black"/>
<path d="M128.005 26.462L125.477 33.0633C125.405 33.2511 125.294 33.4213 125.15 33.5621C125.006 33.7029 124.834 33.8112 124.645 33.8794C124.455 33.9477 124.254 33.9744 124.053 33.9577C123.853 33.941 123.658 33.8813 123.483 33.7827L117.338 30.3262C116.379 29.9529 115.607 29.2146 115.191 28.2732C114.776 27.3318 114.75 26.2642 115.121 25.3043C115.492 24.3445 116.229 23.5707 117.169 23.1528C118.11 22.7348 119.178 22.7067 120.14 23.0746L127.001 24.5955C127.198 24.6391 127.382 24.7245 127.543 24.8459C127.703 24.9673 127.836 25.1218 127.931 25.299C128.026 25.4761 128.082 25.6717 128.095 25.8724C128.108 26.0731 128.077 26.2742 128.005 26.462Z" fill="#45A29E"/>
<path d="M156.551 42.806L146.958 47.1642L148.217 51.9033C150.649 61.0549 151.295 70.5891 150.118 79.9847L157.133 81.4488L162.947 66.6309L160.912 49.7792L156.551 42.806Z" fill="#45A29E"/>
<path d="M175.375 64.7423C169.071 64.7423 163.935 69.3219 163.685 75.0567H187.064C186.815 69.3219 181.678 64.7423 175.375 64.7423Z" fill="#3F3D56"/>
<path d="M170.468 65.7306C170.14 39.8433 155.388 42.2249 155.388 42.2249C155.388 42.2249 155.664 50.2827 155.797 50.5333C165.197 68.3089 149.683 89.1481 129.935 85.3144C129.563 85.2421 129.205 85.1688 128.862 85.0944C126.36 84.5723 124.151 83.1171 122.684 81.025C121.217 78.9328 120.602 76.3608 120.965 73.832C122.911 58.2192 113.235 58.4955 113.235 58.4955H99.0872L91.7399 51.8868C91.4806 51.6535 91.168 51.4873 90.8295 51.4026C90.491 51.318 90.137 51.3175 89.7983 51.4012C89.4596 51.485 89.1465 51.6504 88.8866 51.8829C88.6266 52.1155 88.4276 52.4082 88.307 52.7354L87.3617 55.2995C87.3617 55.2995 73.4076 56.7522 74.5704 70.408H78.8845C78.8741 70.796 78.8897 71.1842 78.9311 71.5701L111.128 71.3085C113.015 71.2932 114.681 72.8216 114.689 74.7078C114.691 75.1671 114.6 75.622 114.422 76.0453C114.244 76.4687 113.982 76.8518 113.652 77.1717C113.323 77.4917 112.932 77.7419 112.504 77.9074C112.075 78.073 111.617 78.1504 111.158 78.1351L105.967 77.9622C104.368 85.0806 108.293 89.8746 112.617 92.889C116.689 95.686 121.52 97.169 126.46 97.1383H140.562C158.877 97.1383 162.075 81.7393 162.075 81.7393C171.668 77.6716 170.468 65.7306 170.468 65.7306Z" fill="#3F3D56"/>
<path d="M174.503 105.564C183.534 105.564 190.855 98.247 190.855 89.2208C190.855 80.1947 183.534 72.8776 174.503 72.8776C165.471 72.8776 158.15 80.1947 158.15 89.2208C158.15 98.247 165.471 105.564 174.503 105.564Z" fill="#3F3D56"/>
<path d="M174.502 93.2266C176.716 93.2266 178.51 91.4332 178.51 89.2209C178.51 87.0086 176.716 85.2152 174.502 85.2152C172.289 85.2152 170.495 87.0086 170.495 89.2209C170.495 91.4332 172.289 93.2266 174.502 93.2266Z" fill="white"/>
<path d="M91.9404 105.564C102.336 105.564 110.764 97.1414 110.764 86.7513C110.764 76.3612 102.336 67.9384 91.9404 67.9384C81.5444 67.9384 73.1168 76.3612 73.1168 86.7513C73.1168 97.1414 81.5444 105.564 91.9404 105.564Z" fill="#3F3D56"/>
<path d="M91.9404 91.3623C94.4884 91.3623 96.554 89.2979 96.554 86.7513C96.554 84.2047 94.4884 82.1403 91.9404 82.1403C89.3924 82.1403 87.3268 84.2047 87.3268 86.7513C87.3268 89.2979 89.3924 91.3623 91.9404 91.3623Z" fill="white"/>
<path d="M146.985 48.452L143.533 39.082C143.353 38.5936 143.271 38.0746 143.292 37.5547C143.313 37.0347 143.436 36.5239 143.654 36.0515C143.873 35.579 144.182 35.1542 144.564 34.8012C144.947 34.4483 145.395 34.174 145.884 33.9943L155.78 30.3534C156.64 30.0369 157.553 29.8929 158.469 29.9294C159.384 29.9659 160.283 30.1822 161.115 30.5661C161.947 30.9499 162.695 31.4937 163.316 32.1665C163.938 32.8392 164.421 33.6277 164.737 34.487C165.023 35.2582 165.169 36.074 165.168 36.8963C165.164 37.9404 164.928 38.9706 164.476 39.9119C164.024 40.8533 163.368 41.6821 162.555 42.3383C161.968 42.8089 161.308 43.1808 160.601 43.4392L146.985 48.452Z" fill="#3F3D56"/>
<path d="M165.023 36.8963C165.022 37.9191 164.791 38.9287 164.349 39.8509C163.906 40.7731 163.262 41.5843 162.464 42.2249C161.24 41.9022 160.101 41.317 159.126 40.5099C158.151 39.7028 157.364 38.6931 156.819 37.5512C156.274 36.4092 155.984 35.1624 155.97 33.8973C155.956 32.6321 156.218 31.3791 156.737 30.2253C157.734 30.0086 158.767 30.0178 159.76 30.2523C160.754 30.4868 161.682 30.9406 162.476 31.5805C163.271 32.2203 163.912 33.0298 164.353 33.9497C164.793 34.8696 165.022 35.8764 165.023 36.8963Z" fill="#45A29E"/>
<path d="M77.0414 72.2966C79.2892 72.2966 81.1114 70.0852 81.1114 67.3573C81.1114 64.6294 79.2892 62.418 77.0414 62.418C74.7936 62.418 72.9714 64.6294 72.9714 67.3573C72.9714 70.0852 74.7936 72.2966 77.0414 72.2966Z" fill="#45A29E"/>
<path d="M130.841 84.8412H134.405L136.101 75.6027L130.84 75.603L130.841 84.8412Z" fill="#FFB8B8"/>
<path d="M129.932 83.6783L136.951 83.678H136.951C137.538 83.678 138.12 83.7936 138.663 84.0182C139.205 84.2429 139.698 84.5722 140.114 84.9873C140.529 85.4024 140.859 85.8952 141.083 86.4376C141.308 86.98 141.424 87.5613 141.424 88.1484V88.2937L129.932 88.2941L129.932 83.6783Z" fill="#2F2E41"/>
<path d="M134.978 81.0494C134.936 81.0494 134.895 81.0475 134.853 81.0435L129.92 80.6846C129.721 80.6661 129.528 80.602 129.358 80.4974C129.187 80.3928 129.042 80.2503 128.935 80.0811C128.828 79.9118 128.762 79.7202 128.74 79.5212C128.719 79.3221 128.744 79.1208 128.813 78.9328L135.414 64.1106C135.461 63.9785 135.48 63.838 135.471 63.6981C135.461 63.5581 135.422 63.4217 135.357 63.2974C135.292 63.1717 135.201 63.0611 135.09 62.973C134.98 62.8849 134.851 62.8212 134.714 62.7861C131.61 61.9752 123.646 59.816 116.752 57.2896C113.799 56.2071 111.938 54.6429 111.223 52.6403C110.28 50.0001 111.675 47.5923 111.735 47.4913L111.782 47.4121L118.269 48.0014L125.302 48.5993L140.713 56.8589C142.005 57.5568 142.985 58.7153 143.461 60.1037C143.936 61.492 143.87 63.0082 143.277 64.3504L136.172 80.2746C136.069 80.5052 135.901 80.7011 135.689 80.8386C135.478 80.9761 135.23 81.0494 134.978 81.0494Z" fill="#2F2E41"/>
<path d="M119.397 18.6767C123.34 18.6767 126.537 15.4817 126.537 11.5406C126.537 7.59938 123.34 4.40442 119.397 4.40442C115.453 4.40442 112.257 7.59938 112.257 11.5406C112.257 15.4817 115.453 18.6767 119.397 18.6767Z" fill="#FFB8B8"/>
<path d="M128.806 85.7129H132.37L134.066 76.4744L128.805 76.4747L128.806 85.7129Z" fill="#FFB8B8"/>
<path d="M127.897 84.5499L134.916 84.5496H134.916C135.503 84.5495 136.085 84.6652 136.628 84.8898C137.17 85.1145 137.663 85.4438 138.079 85.8589C138.494 86.274 138.824 86.7668 139.049 87.3092C139.273 87.8516 139.389 88.4329 139.389 89.02V89.1652L127.897 89.1657L127.897 84.5499Z" fill="#2F2E41"/>
<path d="M132.943 81.921C132.901 81.921 132.86 81.9191 132.818 81.9151L127.885 81.5562C127.686 81.5377 127.493 81.4736 127.323 81.369C127.152 81.2644 127.007 81.1219 126.9 80.9526C126.793 80.7834 126.727 80.5918 126.705 80.3927C126.684 80.1937 126.709 79.9923 126.778 79.8044L133.379 64.9822C133.426 64.8501 133.445 64.7096 133.436 64.5697C133.426 64.4297 133.387 64.2933 133.322 64.169C133.257 64.0433 133.166 63.9327 133.055 63.8446C132.945 63.7565 132.816 63.6928 132.679 63.6577C129.575 62.8468 121.611 60.6876 114.717 58.1612C111.764 57.0787 109.903 55.5145 109.188 53.5118C108.245 50.8717 109.64 48.4639 109.7 48.3629L109.747 48.2837L116.234 48.873L123.267 49.4708L138.678 57.7304C139.97 58.4284 140.95 59.5869 141.426 60.9752C141.901 62.3636 141.835 63.8798 141.242 65.222L134.137 81.1462C134.034 81.3768 133.866 81.5727 133.654 81.7102C133.443 81.8477 133.195 81.921 132.943 81.921Z" fill="#2F2E41"/>
<path d="M121.599 22.7232L114.04 20.1083C114.04 20.1083 109.295 23.7517 111.575 32.7902C112.765 37.4545 112.418 42.3779 110.586 46.8295C110.366 47.3803 110.112 47.917 109.825 48.4366C109.825 48.4366 118.256 58.6058 126.105 51.0515L123.052 36.3789C123.052 36.3789 127.849 26.6456 121.599 22.7232Z" fill="#45A29E"/>
<path d="M120.283 18.9194C119.267 17.3992 118.465 15.2912 119.584 13.8448C120.688 12.417 122.867 12.6273 124.558 11.9955C126.914 11.1155 128.281 8.34935 127.854 5.87205C127.428 3.39475 125.439 1.34114 123.068 0.500868C120.698 -0.339403 118.025 -0.0661274 115.703 0.901496C112.846 2.09265 110.395 4.39686 109.367 7.31569C108.339 10.2345 108.889 13.7391 111.021 15.9826C113.307 18.3878 116.895 19.0289 120.214 18.99" fill="#2F2E41"/>
<path d="M113.642 5.95149C112.361 6.99335 110.407 6.5306 109.033 5.61623C107.658 4.70187 106.543 3.39986 105.056 2.68296C102.434 1.4191 99.2635 2.25928 96.7116 3.65923C94.1598 5.05919 91.8977 6.99326 89.2022 8.09187C86.5066 9.19047 83.067 9.24477 81.0259 7.17036C80.5236 8.62479 80.4826 10.1987 80.9083 11.6773C81.3341 13.1559 82.206 14.4672 83.4049 15.4323C84.6039 16.3974 86.0717 16.9693 87.6079 17.07C89.1441 17.1706 90.6739 16.7951 91.9887 15.9947C94.9422 14.1967 96.5735 10.4267 99.8862 9.43434C101.719 8.88519 103.688 9.32748 105.54 9.80654C107.393 10.2856 109.325 10.8032 111.194 10.3954C113.064 9.98758 114.813 8.30838 114.575 6.41063L113.642 5.95149Z" fill="#2F2E41"/>
<path d="M154.088 36.4029C153.901 35.987 153.624 35.6174 153.277 35.32C152.931 35.0226 152.524 34.8047 152.084 34.6817C151.644 34.5587 151.183 34.5335 150.733 34.6079C150.282 34.6823 149.854 34.8545 149.477 35.1124L121.723 28.8868L121.378 35.6659L148.768 39.6538C149.243 40.2575 149.924 40.6659 150.68 40.8016C151.437 40.9373 152.217 40.791 152.873 40.3903C153.529 39.9896 154.015 39.3623 154.239 38.6274C154.463 37.8926 154.409 37.101 154.088 36.4029Z" fill="#FFB8B8"/>
<path d="M126.589 29.5097L124.895 36.3723C124.847 36.5676 124.757 36.7502 124.632 36.9076C124.507 37.0651 124.349 37.1938 124.17 37.2848C123.99 37.3759 123.793 37.4273 123.592 37.4354C123.391 37.4436 123.191 37.4083 123.004 37.3321L116.48 34.6598C115.481 34.4082 114.623 33.7709 114.094 32.8877C113.565 32.0045 113.408 30.9476 113.658 29.9489C113.907 28.9502 114.543 28.0912 115.426 27.5605C116.308 27.0298 117.365 26.8707 118.365 27.1181L125.362 27.7812C125.562 27.8003 125.756 27.8623 125.93 27.9629C126.105 28.0636 126.255 28.2006 126.371 28.3647C126.488 28.5287 126.568 28.7159 126.605 28.9135C126.643 29.1111 126.637 29.3144 126.589 29.5097V29.5097Z" fill="#45A29E"/>
<path d="M150.882 41.7891C152.006 41.7891 152.917 40.8785 152.917 39.7553C152.917 38.632 152.006 37.7214 150.882 37.7214C149.758 37.7214 148.847 38.632 148.847 39.7553C148.847 40.8785 149.758 41.7891 150.882 41.7891Z" fill="#45A29E"/>
<path d="M241 105.709C241 105.786 240.969 105.86 240.915 105.915C240.86 105.969 240.786 106 240.709 106H0.290712C0.21361 106 0.139666 105.969 0.0851473 105.915C0.0306282 105.86 0 105.787 0 105.709C0 105.632 0.0306282 105.559 0.0851473 105.504C0.139666 105.45 0.21361 105.419 0.290712 105.419H240.709C240.786 105.419 240.86 105.45 240.915 105.504C240.969 105.559 241 105.633 241 105.709Z" fill="#3F3D56"/>
</g>
<defs>
<clipPath id="clip0">
<rect width="241" height="106" fill="white"/>
</clipPath>
</defs>
</svg>
