<svg width="73" height="70" viewBox="0 0 73 70" fill="none" xmlns="http://www.w3.org/2000/svg">
<g clip-path="url(#clip0)">
<path d="M3.18777 41.0234C5.13692 39.1748 7.5361 38.2505 10.3853 38.2505C13.2345 38.2505 15.6402 39.18 17.6022 41.0391C19.7145 43.0515 20.7706 45.7326 20.7706 49.0823C20.7706 52.4821 19.6775 55.1881 17.4913 57.2005C15.5246 58.9968 13.1559 59.895 10.3853 59.895C7.41641 59.895 4.9521 58.8992 2.99238 56.9077C0.99746 54.8721 0 52.263 0 49.0806C0 45.7308 1.06259 43.0451 3.18777 41.0234ZM5.55527 56.3953C6.86839 57.9732 8.47841 58.7616 10.3853 58.7604C12.2547 58.7604 13.8524 57.9924 15.1784 56.4563C16.5044 54.9203 17.168 52.4617 17.1692 49.0806C17.1692 45.6599 16.498 43.1886 15.1555 41.6665C13.8131 40.1444 12.223 39.3851 10.3853 39.3886C8.48428 39.3886 6.87602 40.1775 5.56055 41.7554C4.24507 43.3332 3.58792 45.775 3.5891 49.0806C3.5891 52.3792 4.24449 54.8175 5.55527 56.3953Z" fill="white"/>
<path d="M21.0118 58.9696C22.2193 58.8534 22.9721 58.6169 23.2702 58.2602C23.5682 57.9035 23.7178 57.078 23.719 55.7836V42.1894C23.719 41.096 23.5518 40.3762 23.2174 40.03C22.8829 39.6837 22.1477 39.4641 21.0118 39.3712V38.796H29.3658C32.0484 38.796 34.102 39.3119 35.5266 40.3437C36.9512 41.3754 37.6629 42.7337 37.6618 44.4185C37.6618 46.5517 36.8732 48.0988 35.296 49.0597C33.7189 50.0206 31.7433 50.5005 29.3693 50.4993C29.0296 50.4993 28.5931 50.4906 28.0633 50.4766C27.5334 50.4627 27.1374 50.454 26.8786 50.454V56.1514C26.8786 57.3295 27.0617 58.0708 27.4278 58.3753C27.7939 58.6797 28.6113 58.8778 29.8798 58.9696V59.5517H21.0118V58.9696ZM31.7016 40.5424C30.8051 40.1531 29.6709 39.9591 28.2991 39.9602C27.6502 39.9602 27.2506 40.0242 27.1004 40.152C26.9502 40.2798 26.8751 40.5633 26.8751 41.0025V49.1817C27.4419 49.2328 27.8133 49.2636 27.9893 49.2741C28.1653 49.2845 28.3414 49.2897 28.4998 49.2897C29.9537 49.2897 31.0985 49.0853 31.934 48.6763C33.4513 47.9303 34.2094 46.536 34.2082 44.4934C34.2082 42.5739 33.3727 41.2569 31.7016 40.5424Z" fill="white"/>
<path d="M46.7181 38.796V39.3781C45.5012 39.4595 44.7126 39.6611 44.3523 39.9829C43.9921 40.3048 43.8114 41.0426 43.8102 42.1963V52.2299C43.8102 53.874 44.0373 55.1556 44.4914 56.0747C45.3363 57.7501 46.9399 58.5879 49.3021 58.5879C51.892 58.5879 53.6299 57.7298 54.5159 56.0137C55.0099 55.054 55.2575 53.5731 55.2587 51.5711V43.4076C55.2587 41.7008 55.0522 40.6307 54.6391 40.1973C54.226 39.7639 53.4421 39.4908 52.2874 39.3781V38.796H59.6205V39.3781C58.3942 39.5106 57.5928 39.804 57.2161 40.2583C56.8394 40.7126 56.651 41.7624 56.651 43.4076V51.5711C56.651 53.7358 56.316 55.4258 55.6459 56.6411C54.4091 58.8789 52.0574 59.9973 48.591 59.9961C45.1656 59.9961 42.8345 58.8923 41.5976 56.6847C40.9264 55.4995 40.5913 53.9368 40.5925 51.9964V42.1963C40.5925 41.053 40.4165 40.3204 40.0644 39.9986C39.7124 39.6767 38.9361 39.4699 37.7357 39.3781V38.796H46.7181Z" fill="white"/>
<path d="M59.4956 53.2407C60.0307 54.6501 60.6591 55.7737 61.3808 56.6114C62.6352 58.0719 64.1954 58.8022 66.0612 58.8022C67.0225 58.8183 67.9555 58.4797 68.6787 57.8523C69.4168 57.2179 69.7853 56.3343 69.7841 55.2014C69.7882 54.7061 69.6919 54.2151 69.5008 53.7573C69.3097 53.2996 69.0278 52.8844 68.6716 52.5366C68.1881 52.0579 67.169 51.3381 65.6141 50.3772L62.9122 48.7076C62.1985 48.277 61.5441 47.7568 60.9654 47.1599C60.0677 46.17 59.6188 45.0772 59.6188 43.8816C59.6188 42.2991 60.1504 40.9815 61.2136 39.9288C62.2767 38.8761 63.6849 38.3533 65.4381 38.3602C66.1598 38.3602 67.0287 38.5345 68.045 38.8831C69.0612 39.2317 69.6415 39.4059 69.7858 39.4059C70.1766 39.4059 70.4471 39.3136 70.5973 39.1288C70.7708 38.8971 70.891 38.6306 70.9493 38.348H71.5989L72.303 45.0266H71.5443C71.0221 43.0177 70.1895 41.6147 69.0465 40.8176C67.9036 40.0206 66.777 39.6226 65.6669 39.6238C64.8453 39.6087 64.0439 39.8767 63.3998 40.3819C62.7555 40.8874 62.4334 41.5892 62.4334 42.4873C62.4147 43.2437 62.6786 43.9803 63.1744 44.5561C63.6697 45.137 64.4371 45.7447 65.4768 46.3791L68.2597 48.0784C70 49.1415 71.228 50.1169 71.9439 51.0046C72.6518 51.9167 73.0244 53.0405 73 54.1906C73.013 54.9728 72.8505 55.7481 72.5242 56.4606C72.1979 57.1731 71.7159 57.805 71.113 58.3107C69.8598 59.4133 68.2586 59.9652 66.3094 59.9664C65.2615 59.9541 64.2231 59.7673 63.2378 59.4139C62.1711 59.0467 61.5603 58.8632 61.4054 58.8632C61.0334 58.8632 60.7835 58.9753 60.6556 59.1995C60.5266 59.422 60.4401 59.6659 60.4003 59.9193H59.6963L58.7528 53.2407H59.4956Z" fill="white"/>
<path d="M8.7501 63.7589C8.48359 63.7476 8.22322 63.8402 8.02489 64.0169C7.94183 64.0904 7.87427 64.1794 7.8261 64.2789C7.77793 64.3783 7.7501 64.4862 7.74421 64.5964C7.73832 64.7065 7.75449 64.8167 7.79178 64.9207C7.82908 65.0246 7.88677 65.1202 7.96152 65.202C8.12212 65.3641 8.30671 65.501 8.50895 65.6081C8.72722 65.7301 8.96192 65.8463 9.21304 65.9567C9.46259 66.0679 9.69876 66.2064 9.91713 66.3697C10.1356 66.5316 10.3208 66.7334 10.4628 66.964C10.6187 67.2366 10.6943 67.5469 10.6811 67.8599C10.6861 68.1595 10.6261 68.4566 10.505 68.7313C10.3824 68.9945 10.202 69.2273 9.97698 69.4127C9.73804 69.6072 9.46297 69.7534 9.16728 69.8432C8.82531 69.9475 8.46894 69.9981 8.11114 69.9931C7.796 69.9966 7.48175 69.9591 7.17647 69.8816C6.95265 69.831 6.74059 69.7387 6.55159 69.6097C6.61671 69.3849 6.67128 69.1809 6.71705 68.9962C6.76281 68.8115 6.79978 68.6093 6.83322 68.3914H7.00924C7.0622 68.6736 7.20907 68.9301 7.42642 69.1199C7.54238 69.2197 7.67692 69.2961 7.82247 69.3448C7.99245 69.4018 8.17107 69.4295 8.35053 69.4267C8.5057 69.4395 8.66187 69.4206 8.80934 69.3711C8.95681 69.3217 9.09243 69.2427 9.20776 69.1391C9.29816 69.0468 9.36913 68.9377 9.41657 68.818C9.46401 68.6983 9.48697 68.5705 9.48412 68.442C9.49248 68.2242 9.41626 68.0115 9.27113 67.8477C9.11775 67.6852 8.93956 67.5476 8.74306 67.4398C8.52949 67.3236 8.29479 67.2075 8.03897 67.0913C7.78955 66.9827 7.55334 66.8464 7.33489 66.6852C7.12212 66.5237 6.94282 66.3231 6.80682 66.0943C6.65438 65.8207 6.58071 65.5108 6.59383 65.1985C6.58674 64.8954 6.64682 64.5943 6.76985 64.3166C6.88225 64.071 7.04605 63.8518 7.25039 63.6735C7.4527 63.499 7.68777 63.3658 7.94216 63.2814C8.20845 63.1913 8.48807 63.1459 8.76947 63.1472C9.07929 63.1418 9.38808 63.1842 9.68478 63.2727C9.9285 63.3473 10.1564 63.4654 10.3572 63.6212C10.2991 63.7694 10.2498 63.9105 10.2076 64.0482L10.0474 64.5711H9.90305C9.82802 64.3289 9.67434 64.118 9.46586 63.9712C9.25739 63.8243 9.00579 63.7497 8.7501 63.7589Z" fill="white"/>
<path d="M13.5537 65.2648C13.7268 64.8538 13.9818 64.4815 14.3036 64.1703C14.6416 63.8516 15.0409 63.6032 15.4776 63.4401C15.9658 63.2556 16.4848 63.1645 17.0073 63.1717C17.4966 63.1672 17.9835 63.2384 18.4507 63.3825C18.8772 63.5134 19.2724 63.7286 19.6124 64.0152C19.9507 64.3083 20.2173 64.6736 20.3922 65.0836C20.5914 65.5624 20.6885 66.0769 20.6773 66.5946C20.6812 67.0562 20.5871 67.5134 20.401 67.9366C20.2217 68.3457 19.962 68.7154 19.6371 69.0242C19.3011 69.3405 18.9042 69.5865 18.47 69.7474C17.9936 69.9246 17.488 70.0127 16.9791 70.0071C16.4933 70.0103 16.0093 69.947 15.541 69.8189C15.1112 69.7046 14.7117 69.4988 14.3705 69.2159C14.0277 68.9239 13.7573 68.5577 13.5801 68.1458C13.3749 67.6557 13.2759 67.1284 13.2897 66.5981C13.2855 66.1406 13.3754 65.6869 13.5537 65.2648ZM18.9312 65.2648C18.8412 64.9613 18.695 64.677 18.5 64.4265C18.322 64.2007 18.0937 64.0187 17.8328 63.8949C17.5653 63.7686 17.272 63.7048 16.9756 63.7085C16.666 63.704 16.3613 63.7849 16.0955 63.942C15.8294 64.1035 15.6028 64.3213 15.4319 64.5799C15.2401 64.8713 15.1002 65.1932 15.0182 65.5315C14.9227 65.9087 14.8753 66.2963 14.8774 66.6852C14.868 67.1226 14.9238 67.5589 15.0429 67.9802C15.1315 68.2895 15.2837 68.5772 15.49 68.8255C15.6637 69.0308 15.8863 69.1901 16.1377 69.2891C16.3843 69.3854 16.6471 69.4345 16.9122 69.4337C17.1993 69.4363 17.4834 69.3769 17.7448 69.2594C18.0181 69.1318 18.2561 68.9404 18.4383 68.7017C18.6528 68.4167 18.8132 68.0954 18.9118 67.7536C19.0385 67.3111 19.0978 66.8523 19.0879 66.3925C19.0947 66.0122 19.0431 65.6332 18.9347 65.2683L18.9312 65.2648Z" fill="white"/>
<path d="M23.682 64.531C23.6679 64.1173 23.6486 63.7037 23.6239 63.29C23.9144 63.29 24.2013 63.3057 24.4847 63.3179C24.7681 63.3301 25.0567 63.3371 25.3472 63.3371C25.8236 63.3371 26.2478 63.3324 26.6198 63.3231C26.9912 63.3127 27.2412 63.3022 27.3697 63.29C27.3404 63.4216 27.3274 63.5562 27.331 63.6909C27.3299 63.7712 27.3334 63.8515 27.3415 63.9314C27.3415 63.9889 27.3574 64.0534 27.3697 64.1231L26.7554 64.0848L26.1058 64.0464C25.8964 64.0342 25.708 64.0238 25.5408 64.0168L25.1888 64.0081C25.1624 64.3567 25.1483 64.7052 25.1448 65.0538C25.1412 65.4024 25.1448 65.7509 25.1448 66.0995C25.5637 66.0925 25.9427 66.0833 26.2819 66.0716C26.621 66.06 26.973 66.0437 27.338 66.0228C27.3186 66.1309 27.3063 66.2145 27.2993 66.2721C27.293 66.3299 27.29 66.3881 27.2905 66.4463C27.29 66.4995 27.2947 66.5527 27.3046 66.6049C27.3046 66.659 27.3257 66.7374 27.338 66.8402C26.6022 66.7821 25.87 66.7537 25.1412 66.7548V67.2428C25.1412 67.7657 25.1412 68.245 25.1606 68.6563C25.18 69.0676 25.1923 69.4737 25.2187 69.8763C25.1018 69.8636 24.9843 69.8572 24.8666 69.8571H23.9953C23.8777 69.8571 23.7602 69.8635 23.6433 69.8763C23.6679 69.4801 23.6873 69.0734 23.7014 68.6563C23.7137 68.245 23.7207 67.7727 23.7207 67.2428V65.9392C23.7014 65.4146 23.6943 64.9423 23.682 64.531Z" fill="white"/>
<path d="M31.684 64.3445C31.6835 64.2319 31.6752 64.1195 31.6593 64.0081C31.5625 64.0081 31.4428 64.0081 31.3073 64.0168L30.8514 64.0412C30.6895 64.0517 30.5258 64.0639 30.3585 64.0796C30.1913 64.0952 30.0346 64.1127 29.8938 64.1336C29.9062 64.0621 29.9167 63.9924 29.9273 63.9227C29.9363 63.8527 29.941 63.7823 29.9414 63.7118C29.9411 63.6413 29.9364 63.5709 29.9273 63.5009C29.9167 63.4295 29.9062 63.3598 29.8938 63.29L30.4888 63.3075C30.6648 63.3075 30.8408 63.3197 31.0309 63.3231L31.6312 63.3319C31.8477 63.3319 32.1064 63.3319 32.411 63.3319C32.7155 63.3319 32.9725 63.3319 33.189 63.3319L33.7857 63.3231C33.9617 63.3231 34.1377 63.3144 34.3138 63.3075L34.8717 63.29C34.8577 63.3598 34.8471 63.4295 34.8365 63.5009C34.8274 63.5709 34.8227 63.6413 34.8225 63.7118C34.8228 63.7823 34.8275 63.8527 34.8365 63.9227C34.8471 63.9924 34.8577 64.0621 34.8717 64.1336C34.7415 64.1127 34.5971 64.0952 34.4352 64.0796C34.2733 64.0639 34.1148 64.0517 33.9564 64.0412L33.5058 64.0168C33.3632 64.0168 33.2453 64.0081 33.1538 64.0081C33.1452 64.0524 33.1399 64.0972 33.1379 64.1423C33.1379 64.1998 33.1379 64.266 33.1379 64.3445V67.2481C33.1379 67.7709 33.1379 68.2502 33.1573 68.6615C33.1766 69.0728 33.189 69.4789 33.2154 69.8815C33.0985 69.8688 32.9809 69.8624 32.8633 69.8623H31.9832C31.8656 69.8623 31.7481 69.8687 31.6312 69.8815C31.6558 69.4853 31.6752 69.0786 31.6893 68.6615C31.7016 68.2502 31.7086 67.7779 31.7086 67.2481V64.8516C31.6928 64.6599 31.684 64.4961 31.684 64.3445Z" fill="white"/>
<path d="M41.3494 66.2947C41.2015 66.7014 41.0519 67.115 40.9005 67.5356C40.7474 67.9574 40.6013 68.3722 40.4587 68.7818C40.3161 69.1913 40.1947 69.5556 40.0908 69.8745C39.9429 69.8623 39.7775 69.8554 39.5979 69.8554H39.3462C39.262 69.8556 39.1778 69.862 39.0945 69.8745C39.0241 69.6131 38.9291 69.2733 38.8129 68.8585C38.6967 68.4437 38.5717 68.0027 38.4362 67.5356C38.3007 67.0685 38.1616 66.598 38.019 66.1222C37.8764 65.6464 37.7444 65.2089 37.623 64.8133C37.5015 64.4177 37.3977 64.0795 37.3132 63.8024C37.2287 63.5253 37.1741 63.3528 37.1477 63.29L37.5649 63.3231C37.7004 63.3319 37.8324 63.3371 37.9609 63.3371C38.0894 63.3371 38.2215 63.3371 38.3535 63.3231L38.746 63.29C38.8428 63.6979 38.9449 64.1179 39.0558 64.5501C39.1667 64.9823 39.2758 65.4059 39.3902 65.8241C39.5047 66.2424 39.612 66.6485 39.7194 67.0441L40.0134 68.1317H40.0327C40.1759 67.7297 40.3296 67.2934 40.4939 66.8228C40.6582 66.3522 40.8178 65.8921 40.9727 65.4425C41.1276 64.9928 41.2702 64.571 41.3987 64.1963C41.5272 63.8216 41.6275 63.5149 41.6979 63.2918L41.9408 63.3249C42.1016 63.3435 42.2641 63.3435 42.4249 63.3249L42.666 63.2918C42.7049 63.4824 42.7536 63.6709 42.8121 63.8565C42.8825 64.0935 42.9653 64.3549 43.0585 64.6425C43.1518 64.9301 43.2522 65.2333 43.3595 65.5523C43.4669 65.8712 43.5725 66.1884 43.6781 66.5021C43.7838 66.8158 43.8823 67.1121 43.9739 67.3945C44.0654 67.6768 44.1376 67.9173 44.1957 68.1317H44.215C44.3453 67.7297 44.4826 67.2858 44.6269 66.8001C44.773 66.3139 44.9121 65.8433 45.0476 65.3902C45.1831 64.937 45.3064 64.5188 45.4155 64.144C45.5246 63.7693 45.6038 63.4817 45.6478 63.2918C45.7816 63.32 45.9177 63.3358 46.0545 63.3388C46.1274 63.3385 46.2003 63.3338 46.2727 63.3249L46.4998 63.2918C46.4558 63.412 46.3836 63.6107 46.2868 63.8861C46.19 64.1615 46.0773 64.4839 45.9488 64.8586C45.8203 65.2333 45.6813 65.6394 45.5317 66.0786L45.0863 67.4101C44.9385 67.8581 44.7941 68.2955 44.6568 68.7243C44.5195 69.153 44.3963 69.5364 44.2925 69.8745C44.1446 69.8623 43.9809 69.8554 43.7996 69.8554H43.5479C43.4636 69.8557 43.3795 69.8621 43.2962 69.8745C43.0885 69.0955 42.8561 68.3199 42.5921 67.5496C42.3281 66.7792 42.064 65.9949 41.7648 65.1967H41.7454C41.6304 65.5232 41.4984 65.8892 41.3494 66.2947Z" fill="white"/>
<path d="M54.4332 69.8745C54.2783 69.8623 54.1322 69.8553 53.9931 69.8553H53.1711C53.0321 69.8553 52.8948 69.8553 52.7592 69.8745C52.6554 69.5608 52.5498 69.2419 52.4389 68.9159C52.328 68.59 52.2136 68.2641 52.0868 67.9382C51.8809 67.9382 51.6749 67.9278 51.4672 67.9243C51.2595 67.9208 51.0553 67.9243 50.8476 67.9243H50.3442C50.177 67.9243 50.0098 67.9243 49.8408 67.9382C49.7117 68.2647 49.5943 68.5906 49.4887 68.9159C49.3831 69.2413 49.2828 69.5608 49.1877 69.8745C49.1127 69.8622 49.0367 69.8558 48.9607 69.8553H48.5012C48.417 69.8561 48.3329 69.8625 48.2495 69.8745C48.327 69.7089 48.4256 69.4789 48.5593 69.1774C48.6931 68.8759 48.8304 68.5517 48.9853 68.1805L49.4834 66.9866C49.6595 66.5614 49.8355 66.1326 50.0115 65.6969C50.1875 65.2612 50.3636 64.8359 50.5396 64.4142C50.7156 63.9924 50.867 63.5985 51.0078 63.2343L51.1926 63.2674C51.3143 63.2883 51.4388 63.2883 51.5605 63.2674C51.6186 63.2587 51.6802 63.2465 51.7365 63.2343C51.9442 63.778 52.1654 64.359 52.4001 64.9771C52.6348 65.5952 52.8695 66.2041 53.1042 66.8036C53.3389 67.4008 53.5736 67.9678 53.8083 68.5046C54.043 69.0414 54.2513 69.4981 54.4332 69.8745ZM51.006 65.0921C50.8394 65.4756 50.6816 65.8538 50.5325 66.2267C50.3835 66.5997 50.238 66.9814 50.096 67.3718H51.8686L51.4479 66.2285C51.3094 65.8543 51.1621 65.4756 51.006 65.0921Z" fill="white"/>
<path d="M58.7228 66.8559V67.2481C58.7228 67.7709 58.7228 68.2502 58.7421 68.6615C58.7615 69.0728 58.7756 69.4789 58.8002 69.8815C58.6833 69.8687 58.5658 69.8623 58.4482 69.8623H57.5769C57.4593 69.8624 57.3417 69.8688 57.2248 69.8815C57.2518 69.4853 57.2712 69.0786 57.2829 68.6615C57.297 68.2502 57.3023 67.7779 57.3023 67.2481V65.9444C57.3023 65.4215 57.3023 64.9423 57.2829 64.531C57.2636 64.1196 57.2512 63.7048 57.2248 63.29C57.3357 63.3022 57.4537 63.3127 57.5769 63.3231C57.7001 63.3336 57.8515 63.3371 58.0117 63.3371C58.1718 63.3371 58.3848 63.3284 58.6084 63.3127C58.8319 63.297 59.1065 63.29 59.4357 63.29C59.6803 63.29 59.8898 63.29 60.0641 63.3075C60.2152 63.3183 60.3657 63.3375 60.5147 63.365C60.6278 63.3867 60.7382 63.4206 60.8439 63.4661C60.937 63.5077 61.0259 63.5579 61.1096 63.616C61.313 63.758 61.4772 63.9482 61.5873 64.1692C61.6973 64.3903 61.7498 64.635 61.7398 64.8813C61.7579 65.2956 61.6198 65.7018 61.3526 66.0211C61.0553 66.3382 60.666 66.5562 60.2383 66.645C60.5481 67.1876 60.8808 67.7291 61.2364 68.2694C61.5919 68.8097 61.9469 69.3447 62.3013 69.8745C62.1535 69.8623 62.0074 69.8554 61.8648 69.8554H60.9847C60.8386 69.8554 60.6925 69.8554 60.5429 69.8745L58.8108 66.8559H58.7228ZM60.1662 64.4159C60.1189 64.2653 60.0262 64.1327 59.9004 64.036C59.7623 63.941 59.6027 63.8811 59.4357 63.8617C59.2091 63.8338 58.981 63.821 58.7527 63.8234C58.7339 64.6936 58.724 65.565 58.7228 66.4376C58.7615 66.4376 58.7985 66.4481 58.8354 66.4516H58.9358C59.1136 66.4636 59.2921 66.4396 59.4604 66.3812C59.6286 66.3228 59.7831 66.2311 59.9145 66.1117C60.1398 65.8851 60.2524 65.5401 60.2524 65.0817C60.2592 64.8584 60.2301 64.6354 60.1662 64.4211V64.4159Z" fill="white"/>
<path d="M65.086 64.531C65.0755 64.1179 65.0579 63.7048 65.0367 63.29C65.3254 63.29 65.6141 63.3057 65.8975 63.3179C66.1809 63.3301 66.4695 63.3371 66.76 63.3371C67.2376 63.3371 67.6618 63.3324 68.0326 63.3231C68.404 63.3127 68.654 63.3022 68.7825 63.29C68.7532 63.4216 68.7402 63.5562 68.7438 63.6909C68.7427 63.7712 68.7462 63.8515 68.7543 63.9314C68.7543 63.9889 68.7702 64.0534 68.7825 64.1231L68.1682 64.0848L67.5186 64.0464C67.3092 64.0342 67.1208 64.0238 66.9536 64.0168L66.6016 64.0081C66.5752 64.3567 66.5611 64.7052 66.5576 65.0538C66.554 65.4024 66.5576 65.7509 66.5576 66.0995C66.9765 66.0925 67.3555 66.0833 67.6947 66.0716C68.0338 66.06 68.3858 66.0437 68.7508 66.0228C68.7314 66.1309 68.7191 66.2145 68.7121 66.2721C68.7058 66.3299 68.7028 66.3881 68.7033 66.4463C68.7028 66.4995 68.7075 66.5527 68.7174 66.6049C68.7174 66.659 68.7385 66.7374 68.7508 66.8402C68.015 66.7821 67.2828 66.7537 66.554 66.7548C66.554 66.9593 66.554 67.1632 66.554 67.3666C66.554 67.5722 66.554 67.7761 66.554 67.9818C66.554 68.3966 66.564 68.7957 66.584 69.1791C66.9518 69.1791 67.3197 69.1687 67.6876 69.1513C68.0555 69.1338 68.4252 69.099 68.8001 69.0537C68.7878 69.1251 68.7772 69.1896 68.7719 69.2471C68.7638 69.3264 68.7603 69.4062 68.7614 69.4859C68.7603 69.5662 68.7638 69.6465 68.7719 69.7264C68.776 69.7749 68.7855 69.8228 68.8001 69.8693C68.6241 69.8693 68.4111 69.8589 68.1558 69.8554C67.9006 69.8519 67.5521 69.8554 67.0997 69.8554H65.5648C65.4187 69.8554 65.3096 69.8554 65.2356 69.8554C65.1617 69.8554 65.0983 69.8554 65.0473 69.8693C65.0684 69.4737 65.086 69.0693 65.0966 68.6493C65.1071 68.2293 65.1142 67.7657 65.1142 67.2359V65.9322C65.1036 65.4146 65.0983 64.9423 65.086 64.531Z" fill="white"/>
<path d="M51.3246 24.8114C49.6031 26.0087 39.4818 33.1039 38.9221 33.496C37.822 34.2646 36.0635 33.9788 35.2802 32.8389C33.6027 30.4669 27.0934 21.303 26.5055 20.4316C25.8753 19.541 25.8841 17.8051 27.0881 16.9999C30.3921 14.6191 30.6279 14.5059 30.6279 14.5059C30.6279 14.5059 36.0723 26.1011 36.2202 26.4113C36.8732 27.7533 38.4416 28.7275 40.2247 27.9189C52.342 22.2947 50.9163 22.9674 52.3702 22.2807C52.504 23.7744 51.9266 24.285 51.3246 24.8114Z" fill="white"/>
<path d="M56.7285 16.7576C56.8324 16.9784 56.8914 17.2172 56.9021 17.4606C56.9128 17.7039 56.8749 17.9469 56.7907 18.1758C56.7066 18.4046 56.5777 18.6148 56.4115 18.7943C56.2452 18.9738 56.0449 19.1192 55.8219 19.222L39.9799 26.542C39.7569 26.6448 39.5156 26.703 39.2698 26.7133C39.0241 26.7236 38.7786 26.6858 38.5476 26.6021C38.3166 26.5185 38.1045 26.3905 37.9235 26.2256C37.7425 26.0606 37.5961 25.862 37.4927 25.641L30.0998 9.95528C29.8911 9.50962 29.8696 9.00019 30.0399 8.53881C30.2102 8.07743 30.5584 7.7018 31.0081 7.49437L46.8501 0.17438C47.073 0.071477 47.3143 0.0130664 47.56 0.00248385C47.8058 -0.0080987 48.0512 0.0293541 48.2823 0.112703C48.5135 0.196053 48.7257 0.323666 48.9071 0.488255C49.0884 0.652844 49.2352 0.851184 49.339 1.07195L56.7285 16.7576Z" fill="white"/>
</g>
<defs>
<clipPath id="clip0">
<rect width="73" height="70" fill="white"/>
</clipPath>
</defs>
</svg>
